<svg width="314" height="289" viewBox="0 0 314 289" fill="none" xmlns="http://www.w3.org/2000/svg">
<g filter="url(#filter0_d_249_5248)">
<path d="M201.492 25.0215C201.492 25.0215 156.397 8.98641 112.13 34.5155C67.863 60.0447 45.5269 110.723 26.3466 151.319C7.16562 191.914 18.206 233.207 51.9978 252.035C85.7897 270.863 108.767 243.108 156.171 241.757C203.576 240.405 216.326 247.182 255.662 220.403C294.998 193.624 302.108 130.38 271.079 83.5836C240.048 36.7872 201.492 25.0215 201.492 25.0215Z" fill="#FFEA00"/>
<path opacity="0.7" d="M201.492 25.0215C201.492 25.0215 156.397 8.98641 112.13 34.5155C67.863 60.0447 45.5269 110.723 26.3466 151.319C7.16562 191.914 18.206 233.207 51.9978 252.035C85.7897 270.863 108.767 243.108 156.171 241.757C203.576 240.405 216.326 247.182 255.662 220.403C294.998 193.624 302.108 130.38 271.079 83.5836C240.048 36.7872 201.492 25.0215 201.492 25.0215Z" fill="white"/>
<path d="M31.1392 287.649H283.281" stroke="#263238" stroke-width="0.62" stroke-miterlimit="10" stroke-linecap="round" stroke-linejoin="round"/>
<path d="M151.678 288.001V18.689" stroke="#263238" stroke-width="0.62" stroke-miterlimit="10" stroke-linecap="round" stroke-linejoin="round"/>
<path d="M141.128 44.1975H125.661V50.4111H141.128V44.1975Z" stroke="#263238" stroke-width="0.62" stroke-miterlimit="10" stroke-linecap="round" stroke-linejoin="round"/>
<path d="M128.74 51.3066H113.272V57.5203H128.74V51.3066Z" stroke="#263238" stroke-width="0.62" stroke-miterlimit="10" stroke-linecap="round" stroke-linejoin="round"/>
<path d="M93.2303 91.5911H77.7632V97.8047H93.2303V91.5911Z" stroke="#263238" stroke-width="0.62" stroke-miterlimit="10" stroke-linecap="round" stroke-linejoin="round"/>
<path d="M100.964 99.7925H85.4964V106.006H100.964V99.7925Z" stroke="#263238" stroke-width="0.62" stroke-miterlimit="10" stroke-linecap="round" stroke-linejoin="round"/>
<path d="M148.862 149.95H133.395V156.164H148.862V149.95Z" stroke="#263238" stroke-width="0.62" stroke-miterlimit="10" stroke-linecap="round" stroke-linejoin="round"/>
<path d="M140.387 157.68H124.92V163.894H140.387V157.68Z" stroke="#263238" stroke-width="0.62" stroke-miterlimit="10" stroke-linecap="round" stroke-linejoin="round"/>
<path d="M50.2872 165.063H34.8201V171.277H50.2872V165.063Z" stroke="#263238" stroke-width="0.62" stroke-miterlimit="10" stroke-linecap="round" stroke-linejoin="round"/>
<path d="M58.4601 173.334H42.993V179.548H58.4601V173.334Z" stroke="#263238" stroke-width="0.62" stroke-miterlimit="10" stroke-linecap="round" stroke-linejoin="round"/>
<path d="M143.976 205.802H128.509V212.016H143.976V205.802Z" stroke="#263238" stroke-width="0.62" stroke-miterlimit="10" stroke-linecap="round" stroke-linejoin="round"/>
<path d="M131.53 149.95H116.063V156.164H131.53V149.95Z" stroke="#263238" stroke-width="0.62" stroke-miterlimit="10" stroke-linecap="round" stroke-linejoin="round"/>
<path d="M58.0019 131.895C73.04 132.06 88.54 132.06 103.113 131.895" stroke="#263238" stroke-width="0.62" stroke-miterlimit="10" stroke-linecap="round" stroke-linejoin="round"/>
<path d="M51.8081 131.895C53.0679 131.895 54.3284 131.895 55.5882 131.895" stroke="#263238" stroke-width="0.62" stroke-miterlimit="10" stroke-linecap="round" stroke-linejoin="round"/>
<path d="M148.691 76.1204C149.687 76.1204 150.682 76.1204 151.678 76.1204" stroke="#263238" stroke-width="0.62" stroke-miterlimit="10" stroke-linecap="round" stroke-linejoin="round"/>
<path d="M138.012 76.1204L146.646 76.191" stroke="#263238" stroke-width="0.62" stroke-miterlimit="10" stroke-linecap="round" stroke-linejoin="round"/>
<path d="M129.201 196.028C128.49 196.028 127.779 196.028 127.069 196.028" stroke="#263238" stroke-width="0.62" stroke-miterlimit="10" stroke-linecap="round" stroke-linejoin="round"/>
<path d="M151.678 196.028C144.993 196.028 138.309 196.028 131.624 196.028" stroke="#263238" stroke-width="0.62" stroke-miterlimit="10" stroke-linecap="round" stroke-linejoin="round"/>
<path d="M174.751 287.891H106.57L102.546 223.492H170.733L174.751 287.891Z" fill="#BFBFBF" stroke="#263238" stroke-width="0.62" stroke-miterlimit="10"/>
<path d="M177.231 287.891H109.05L105.026 223.492H173.213L177.231 287.891Z" fill="white"/>
<mask id="mask0_249_5248" style="mask-type:luminance" maskUnits="userSpaceOnUse" x="105" y="223" width="73" height="65">
<path d="M177.231 287.891H109.05L105.026 223.492H173.213L177.231 287.891Z" fill="white"/>
</mask>
<g mask="url(#mask0_249_5248)">
<path d="M112.394 238.174C112.394 238.174 117.026 230.08 125.344 230.816C133.664 231.552 135.108 239.319 139.291 236.294C143.475 233.269 155.493 231.686 160.153 231.619C164.814 231.551 164.814 231.96 166.04 236.294C167.266 240.627 163.097 246.267 166.04 249.701C168.983 253.135 171.655 258.873 166.273 264.589C160.889 270.305 160.903 278.729 155.5 279.423C150.097 280.116 139.551 272.702 133.909 276.041C128.268 279.38 117.475 284.218 118.457 279.469C119.438 274.719 121.166 265.086 116.5 261.809C111.834 258.532 109.305 241.887 112.394 238.174Z" fill="#263238"/>
<path opacity="0.8" d="M112.394 238.174C112.394 238.174 117.026 230.08 125.344 230.816C133.664 231.552 135.108 239.319 139.291 236.294C143.475 233.269 155.493 231.686 160.153 231.619C164.814 231.551 164.814 231.96 166.04 236.294C167.266 240.627 163.097 246.267 166.04 249.701C168.983 253.135 171.655 258.873 166.273 264.589C160.889 270.305 160.903 278.729 155.5 279.423C150.097 280.116 139.551 272.702 133.909 276.041C128.268 279.38 117.475 284.218 118.457 279.469C119.438 274.719 121.166 265.086 116.5 261.809C111.834 258.532 109.305 241.887 112.394 238.174Z" fill="white"/>
<path opacity="0.4" d="M145.273 245.287C139.387 241.168 140.456 248.463 136.242 250.473C132.028 252.482 129.201 252.842 126.527 254.216C123.852 255.589 127.423 261.929 129.48 266.69C131.538 271.45 127.971 275.722 132.861 277.838C137.751 279.953 144.672 278.181 148.488 276.042C152.304 273.903 158.518 271.955 157.537 264.59C156.556 257.224 148.87 251.338 149.197 248.394C149.525 245.451 146.961 246.468 145.273 245.287Z" fill="white"/>
<path opacity="0.4" d="M165.847 241.322C160.092 237.509 162.439 242.971 159.089 244.047C155.738 245.123 148.38 243.979 152.959 248.721C157.537 253.462 159.319 256.733 158.673 258.205C158.028 259.677 160.807 261.475 161.135 263.928C161.461 266.381 158.359 269.824 162.772 269.819C167.185 269.814 168.493 268.818 167.511 261.303C166.53 253.79 168.983 253.626 168.656 250.192C168.329 246.759 168.71 243.219 165.847 241.322Z" fill="white"/>
<path opacity="0.4" d="M130.23 246.759C133.391 247.334 135.736 244.306 137.888 242.017C140.041 239.728 142.985 240.382 146.255 242.017C149.525 243.652 153.126 242.048 153.696 239.988C154.267 237.929 155.109 234.139 151.499 231.619C147.889 229.099 144.292 226.953 140.694 227.781C137.097 228.608 138.078 238.256 131.538 235.149C124.997 232.042 123.035 245.451 130.23 246.759Z" fill="white"/>
<path opacity="0.4" d="M109.463 250.847C109.298 245.78 110.281 239.074 115.677 238.583C121.073 238.093 120.746 246.629 124.507 247.43C128.268 248.231 128.104 252.319 123.853 252.81C119.601 253.3 121.073 259.364 123.853 261.81C126.633 264.256 122.614 274.135 118.328 272.138C114.042 270.142 109.954 265.891 109.463 250.847Z" fill="white"/>
<path opacity="0.4" d="M120.092 247.429C117.227 242.062 121.374 237.305 127.192 239.988C133.009 242.671 136.389 240.56 137.888 239.163C139.386 237.765 147.371 246.759 139.291 252.808C131.211 258.858 140.399 265.236 132.861 268.343C125.324 271.449 121.763 271.776 119.701 262.619C117.639 253.463 123.853 254.478 120.092 247.429Z" fill="white"/>
<path opacity="0.4" d="M147.14 263.928C144.005 256.201 152.141 249.869 158.518 253.955C164.896 258.041 157.018 260.44 161.952 264.589C166.886 268.739 170.291 270.98 163.75 277.837C157.21 284.694 145.46 285.839 141.605 280.116C137.752 274.393 149.661 270.142 147.14 263.928Z" fill="white"/>
<path opacity="0.4" d="M114.096 275.047C113.426 268.849 114.532 261.816 123.853 261.809C133.173 261.802 140.668 264.486 139.291 272.137C137.915 279.788 143.178 281.913 132.861 283.794C122.545 285.675 115.459 287.638 114.096 275.047Z" fill="white"/>
<path opacity="0.4" d="M114.86 232.533C114.86 232.533 120.121 229.304 123.69 232.533C127.258 235.762 130.482 242.211 136.243 239.989C142.003 237.766 144.293 235.111 152.632 234.476C160.971 233.841 158.518 230.408 162.279 233.351C166.04 236.294 160.48 241.772 163.751 245.983C167.021 250.193 170.843 246.288 168.687 237.122C166.531 227.955 164.078 227.9 158.355 227.601C152.632 227.301 140.205 237.275 136.771 232.861C133.337 228.446 125.592 226.102 119.163 227.601C112.734 229.099 110.834 232.984 114.86 232.533Z" fill="white"/>
</g>
<mask id="mask1_249_5248" style="mask-type:luminance" maskUnits="userSpaceOnUse" x="105" y="223" width="73" height="65">
<path d="M177.231 287.891H109.05L105.026 223.492H173.213L177.231 287.891Z" fill="white"/>
</mask>
<g mask="url(#mask1_249_5248)">
<path d="M132.839 287.891H106.57L102.546 223.492H111.381L132.839 287.891Z" fill="black" fill-opacity="0.2"/>
</g>
<path d="M177.231 287.891H109.05L105.026 223.492H173.213L177.231 287.891Z" stroke="#263238" stroke-width="0.62" stroke-miterlimit="10" stroke-linecap="round" stroke-linejoin="round"/>
<path d="M46.9188 287.824H115.105L103.772 186.477H35.5852L46.9188 287.824Z" fill="#BFBFBF" stroke="#263238" stroke-width="0.62" stroke-miterlimit="10"/>
<path d="M40.7126 210.152L49.3988 287.824H117.585L106.252 186.477H38.0652L38.935 194.256" fill="white"/>
<path d="M40.7126 210.152L49.3988 287.824H117.585L106.252 186.477H38.0652L38.935 194.256" stroke="#263238" stroke-width="0.62" stroke-miterlimit="10" stroke-linecap="round" stroke-linejoin="round"/>
<path d="M39.8049 202.035L40.2265 205.802" stroke="#263238" stroke-width="0.62" stroke-miterlimit="10" stroke-linecap="round" stroke-linejoin="round"/>
<path d="M50.8973 211.224C52.9402 205.104 58.501 205.083 63.6513 199.324C68.8023 193.565 67.0855 190.866 76.6509 194.791C86.2169 198.716 85.2639 201.101 89.7874 205.795C94.311 210.488 100.256 210.138 97.8964 216.077C95.5367 222.016 101.151 228.639 103.617 232.808C106.084 236.978 105.566 244.091 103.617 248.506C101.668 252.921 110.226 260.77 103.617 267.883C97.0086 274.996 85.7314 275.076 78.4929 275.895C71.2544 276.713 65.1226 274.751 61.6884 268.864C58.2542 262.977 50.8961 273.279 54.3303 260.034C57.7638 246.789 58.9902 234.676 54.8207 229.572C50.6518 224.469 49.4242 215.637 50.8973 211.224Z" fill="#FFEA00"/>
<path opacity="0.6" d="M50.8973 211.224C52.9402 205.104 58.501 205.083 63.6513 199.324C68.8023 193.565 67.0855 190.866 76.6509 194.791C86.2169 198.716 85.2639 201.101 89.7874 205.795C94.311 210.488 100.256 210.138 97.8964 216.077C95.5367 222.016 101.151 228.639 103.617 232.808C106.084 236.978 105.566 244.091 103.617 248.506C101.668 252.921 110.226 260.77 103.617 267.883C97.0086 274.996 85.7314 275.076 78.4929 275.895C71.2544 276.713 65.1226 274.751 61.6884 268.864C58.2542 262.977 50.8961 273.279 54.3303 260.034C57.7638 246.789 58.9902 234.676 54.8207 229.572C50.6518 224.469 49.4242 215.637 50.8973 211.224Z" fill="white"/>
<path opacity="0.6" d="M88.3156 192.011L51.7145 237.151L53.1864 239.431L95.5373 195.281L88.3156 192.011Z" fill="white"/>
<path opacity="0.6" d="M96.6682 203.919L75.3452 230.764L80.9841 240.085L92.1032 227.821L94.5559 231.255L76.8964 251.531L82.456 259.38L101.097 233.544L95.5373 224.714L101.097 209.507L96.6682 203.919Z" fill="white"/>
<path opacity="0.2" d="M87.7904 221.823C86.5486 220.023 84.8262 218.558 82.8509 217.621C81.0417 216.762 78.9808 216.308 77.5003 214.96C75.4394 213.082 75.0624 209.952 75.4617 207.193C75.6992 205.554 76.1605 203.892 75.8362 202.268C75.5119 200.644 74.032 199.08 72.407 199.401C71.818 199.517 71.299 199.86 70.8396 200.246C69.5184 201.354 68.5766 202.836 67.6559 204.294C64.6898 208.99 60.5563 212.833 57.3689 217.458C55.7804 219.764 54.2664 222.137 53.1287 224.695C50.454 230.71 49.9921 237.679 51.8496 243.994C53.7946 242.451 56.3229 241.662 58.7998 241.826C59.214 241.853 59.6666 241.926 59.9388 242.24C60.1366 242.468 60.2004 242.782 60.2252 243.082C60.3523 244.585 59.7193 246.033 59.3665 247.5C58.9889 249.071 58.9325 250.718 59.201 252.312C59.3591 253.25 59.6455 254.2 60.2649 254.923C61.2141 256.029 62.8112 256.408 64.2565 256.213C65.7017 256.018 67.0297 255.331 68.2908 254.598C69.3479 253.983 70.4298 253.278 70.9903 252.19C71.472 251.255 71.5024 250.164 71.6376 249.121C72.1367 245.256 74.1845 241.728 76.773 238.816C79.3615 235.903 82.4869 233.529 85.5609 231.136C87.0663 229.964 88.6597 228.64 89.093 226.781C89.4923 225.068 88.7899 223.272 87.7904 221.823Z" fill="white"/>
<path opacity="0.2" d="M54.1672 250.059L69.9667 236.323L74.4437 261.333L64.3055 272.167L61.1168 268.065L66.7582 258.398L64.2571 256.213L58.7459 261.333L54.1672 250.059Z" fill="white"/>
<path opacity="0.2" d="M97.3171 275.722C102.29 270.749 102.29 262.687 97.3171 257.714C92.3444 252.741 84.282 252.741 79.3093 257.714C74.3366 262.687 74.3366 270.749 79.3093 275.722C84.282 280.694 92.3444 280.694 97.3171 275.722Z" fill="white"/>
<path opacity="0.2" d="M90.4682 261.334L74.4437 281.291L76.8964 283.824L93.0846 263.795L90.4682 261.334Z" fill="white"/>
<path opacity="0.2" d="M107.407 252.838L92.1032 278.19L109.526 281.454L107.407 252.838Z" fill="white"/>
<path opacity="0.2" d="M50.2998 192.94L72.3178 190.866L55.9666 211.959L50.2998 192.94Z" fill="white"/>
<path d="M224.905 134.786L250.823 287.825H255.879L229.961 134.786H224.905Z" fill="#757575" stroke="#263238" stroke-width="0.62" stroke-miterlimit="10" stroke-linecap="round" stroke-linejoin="round"/>
<path d="M253.348 287.823H250.825L224.903 134.789H227.432L253.348 287.823Z" fill="#999999" stroke="#263238" stroke-width="0.62" stroke-miterlimit="10" stroke-linecap="round" stroke-linejoin="round"/>
<path d="M237.279 76.3757H232.223L217.126 287.649H222.18L237.279 76.3757Z" fill="#757575" stroke="#263238" stroke-width="0.62" stroke-miterlimit="10" stroke-linecap="round" stroke-linejoin="round"/>
<path d="M218.679 76.3757H213.623L177.813 287.825H182.869L218.679 76.3757Z" fill="#757575" stroke="#263238" stroke-width="0.62" stroke-miterlimit="10" stroke-linecap="round" stroke-linejoin="round"/>
<path d="M216.151 76.3757H213.623L177.813 287.825H180.341L216.151 76.3757Z" fill="#999999" stroke="#263238" stroke-width="0.62" stroke-miterlimit="10" stroke-linecap="round" stroke-linejoin="round"/>
<path d="M234.751 76.3757H232.223L217.126 287.649H219.653L234.751 76.3757Z" fill="#999999" stroke="#263238" stroke-width="0.62" stroke-miterlimit="10" stroke-linecap="round" stroke-linejoin="round"/>
<path d="M247.703 188.116H179.516L190.85 86.7686H259.036L247.703 188.116Z" fill="#BFBFBF" stroke="#263238" stroke-width="0.62" stroke-miterlimit="10"/>
<path d="M253.909 110.444L245.223 188.116H177.036L188.37 86.7688H256.556L255.686 94.5473" fill="white"/>
<path d="M253.909 110.444L245.223 188.116H177.036L188.37 86.7688H256.556L255.686 94.5473" stroke="#263238" stroke-width="0.62" stroke-miterlimit="10" stroke-linecap="round" stroke-linejoin="round"/>
<path d="M254.817 102.326L254.396 106.093" stroke="#263238" stroke-width="0.62" stroke-miterlimit="10" stroke-linecap="round" stroke-linejoin="round"/>
<path d="M189.215 117.188C190.958 111.906 195.471 107.609 196.173 102.071C196.874 96.5347 197.809 93.4608 203.076 92.6796C208.342 91.8984 212.214 101.21 219.586 97.0723C226.957 92.935 236.726 87.0016 240.426 95.9023C244.126 104.803 244.067 107.713 247.455 108.961C250.844 110.208 250.106 124.499 245.391 126.241C240.676 127.984 239.762 135.804 242.805 141.32C245.849 146.836 245.26 156.972 241.201 161.577C237.142 166.182 241.909 170.413 238.271 176.983C234.632 183.554 220.924 185.107 211.43 182.67C201.936 180.233 200.81 171.302 195.091 170.102C189.372 168.902 185.404 161.388 185.835 154.368C186.266 147.348 191.632 143.844 191.199 135.946C190.765 128.047 187.471 122.475 189.215 117.188Z" fill="#FFEA00"/>
<path opacity="0.2" d="M189.215 117.188C190.958 111.906 195.471 107.609 196.173 102.071C196.874 96.5347 197.809 93.4608 203.076 92.6796C208.342 91.8984 212.214 101.21 219.586 97.0723C226.957 92.935 236.726 87.0016 240.426 95.9023C244.126 104.803 244.067 107.713 247.455 108.961C250.844 110.208 250.106 124.499 245.391 126.241C240.676 127.984 239.762 135.804 242.805 141.32C245.849 146.836 245.26 156.972 241.201 161.577C237.142 166.182 241.909 170.413 238.271 176.983C234.632 183.554 220.924 185.107 211.43 182.67C201.936 180.233 200.81 171.302 195.091 170.102C189.372 168.902 185.404 161.388 185.835 154.368C186.266 147.348 191.632 143.844 191.199 135.946C190.765 128.047 187.471 122.475 189.215 117.188Z" fill="white"/>
<path d="M246.257 103.503C246.376 100.574 243.444 98.568 240.873 97.1612C240.524 96.9703 240.174 96.7787 239.825 96.5877C239.237 96.2659 238.643 95.9417 237.998 95.7563C234.518 94.7562 231.381 97.9412 227.995 99.2252C223.887 100.784 218.809 99.188 216.33 95.5598C215.049 93.6843 213.679 90.9835 211.46 91.4684C209.447 91.908 208.753 94.8337 206.734 95.2436C204.897 95.6156 203.103 93.6322 201.322 94.2162C200.719 94.414 200.237 94.8852 199.639 95.0979C198.353 95.5542 196.772 94.7476 195.627 95.4897C194.54 96.1946 194.596 97.7769 194.779 99.0603C195.142 101.599 195.541 103.399 194.722 105.81C193.761 108.634 192.448 111.284 193.474 114.326C193.883 115.537 194.642 116.777 194.265 117.998C194.094 118.549 193.708 119.006 193.476 119.535C192.725 121.247 193.729 123.163 194.081 124.999C194.486 127.109 194.006 129.277 193.527 131.372C193.249 132.587 192.955 133.84 192.221 134.848C191.618 135.674 190.761 136.275 190.072 137.03C188.309 138.967 187.812 141.961 188.857 144.363C190.112 147.247 193.321 149.252 193.598 152.385C193.766 154.292 192.737 156.135 191.37 157.474C190.003 158.813 188.309 159.759 186.716 160.821C186.01 161.292 185.286 161.83 184.97 162.618C184.031 164.955 187.189 167.141 187.031 169.655C186.944 171.044 185.833 172.278 185.995 173.661C186.171 175.155 187.716 176.053 189.118 176.598C193.309 178.226 198.099 178.822 202.277 177.162C205.447 175.902 208.48 173.357 211.821 174.047C214.654 174.631 216.812 177.476 219.703 177.424C222.879 177.367 224.971 173.882 228.053 173.114C227.083 172.235 227.416 170.498 228.442 169.685C229.468 168.872 230.903 168.799 232.195 169.004C233.595 169.227 235.195 169.686 236.306 168.805C237.812 167.61 237.024 165.253 236.467 163.413C235.152 159.061 236.093 154.092 238.907 150.523C239.76 149.441 240.843 148.216 240.494 146.885C240.312 146.19 239.758 145.643 239.55 144.956C238.889 142.771 241.839 141.151 242.283 138.911C242.549 137.572 241.87 136.245 241.213 135.049C240.095 133.011 238.977 130.974 237.858 128.936C236.718 126.857 235.552 124.389 236.51 122.22C238.013 118.816 243.706 118.576 244.59 114.961C245.024 113.19 244.024 111.357 244.194 109.541C244.396 107.409 246.171 105.642 246.257 103.503Z" fill="#FFEA00"/>
<path opacity="0.2" d="M211.362 135.051L214.633 156.938L236.243 148.434L231.762 127.891L211.362 135.051Z" fill="white"/>
<path opacity="0.6" d="M219.446 138.858L241.541 152.639L217.476 168.171L219.446 138.858Z" fill="white"/>
<path opacity="0.4" d="M212.895 144.239L209.3 144.102L208.032 177.356L211.627 177.493L212.895 144.239Z" fill="white"/>
<path opacity="0.2" d="M244.128 106.43C244.599 101.585 241.053 97.2754 236.207 96.8047C231.362 96.3339 227.053 99.8802 226.582 104.725C226.111 109.571 229.657 113.88 234.503 114.351C239.348 114.822 243.657 111.275 244.128 106.43Z" fill="white"/>
<path opacity="0.2" d="M190.857 172.887L191.339 160.23L197.67 157.273L199.659 143.725L194.389 140.294L196.869 116.007L207.657 112.955L205.186 136.982L215.198 142.109L215.282 160.59L204.707 164.087L204.039 181.629L190.857 172.887Z" fill="white"/>
<path opacity="0.6" d="M195.134 104.037L217.688 106.087L215.051 101.93L195.134 104.037Z" fill="white"/>
<path opacity="0.4" d="M217.342 115.15L226.202 114.041L231.131 117.803L217.342 115.15Z" fill="white"/>
<path opacity="0.6" d="M192.693 124.168L214.605 121.377L217.343 130.371L209.372 132.824L211.362 140.145L200.869 142.414L192.693 124.168Z" fill="white"/>
<path d="M262.209 260.408C262.209 260.408 264.019 244.661 270.034 231.006C276.05 217.351 270.634 214.431 267.413 217.844C264.192 221.258 260.661 234.066 260.661 234.066C260.661 234.066 262.255 220.656 261.608 213.511C260.661 203.046 259.029 194.87 254.207 196.162C248.643 197.654 256.549 217.844 254.456 239.032C254.456 239.032 247.109 227.358 244.515 217.378C241.922 207.399 235.295 211.721 237.6 220.652C239.906 229.584 248.837 234.568 252.294 244.256C252.294 244.256 240.794 233.614 237.122 237.806C235.052 240.168 240.288 241.869 242.56 242.957C253.571 248.231 256.391 261.419 256.391 261.419L262.209 260.408Z" fill="#FFEA00"/>
<mask id="mask2_249_5248" style="mask-type:luminance" maskUnits="userSpaceOnUse" x="236" y="196" width="37" height="66">
<path d="M262.209 260.408C262.209 260.408 264.019 244.661 270.034 231.006C276.05 217.351 270.634 214.431 267.413 217.844C264.192 221.258 260.661 234.066 260.661 234.066C260.661 234.066 262.255 220.656 261.608 213.511C260.661 203.046 259.029 194.87 254.207 196.162C248.643 197.654 256.549 217.844 254.456 239.032C254.456 239.032 247.109 227.358 244.515 217.378C241.922 207.399 235.295 211.721 237.6 220.652C239.906 229.584 248.837 234.568 252.294 244.256C252.294 244.256 240.794 233.614 237.122 237.806C235.052 240.168 240.288 241.869 242.56 242.957C253.571 248.231 256.391 261.419 256.391 261.419L262.209 260.408Z" fill="white"/>
</mask>
<g mask="url(#mask2_249_5248)">
<path opacity="0.2" d="M262.209 260.408C262.209 260.408 264.019 244.661 270.034 231.006C276.05 217.351 270.634 214.431 267.413 217.844C264.192 221.258 260.661 234.066 260.661 234.066C260.661 234.066 262.255 220.656 261.608 213.511C260.661 203.046 259.029 194.87 254.207 196.162C248.643 197.654 256.549 217.844 254.456 239.032C254.456 239.032 247.109 227.358 244.515 217.378C241.922 207.399 235.295 211.721 237.6 220.652C239.906 229.584 248.837 234.568 252.294 244.256C252.294 244.256 240.794 233.614 237.122 237.806C235.052 240.168 240.288 241.869 242.56 242.957C253.571 248.231 256.391 261.419 256.391 261.419L262.209 260.408Z" fill="black" fill-opacity="0.7"/>
</g>
<path d="M262.209 260.408C262.209 260.408 264.019 244.661 270.034 231.006C276.05 217.351 270.634 214.431 267.413 217.844C264.192 221.258 260.661 234.066 260.661 234.066C260.661 234.066 262.255 220.656 261.608 213.511C260.661 203.046 259.029 194.87 254.207 196.162C248.643 197.654 256.549 217.844 254.456 239.032C254.456 239.032 247.109 227.358 244.515 217.378C241.922 207.399 235.295 211.721 237.6 220.652C239.906 229.584 248.837 234.568 252.294 244.256C252.294 244.256 240.794 233.614 237.122 237.806C235.052 240.168 240.288 241.869 242.56 242.957C253.571 248.231 256.391 261.419 256.391 261.419L262.209 260.408Z" stroke="#263238" stroke-width="0.62" stroke-miterlimit="10" stroke-linecap="round" stroke-linejoin="round"/>
<path d="M255.518 257.01C255.518 257.01 256.43 240.531 250.415 226.876C244.4 213.221 249.77 212.158 252.991 215.57C256.212 218.983 258.661 236.666 258.661 236.666C258.661 236.666 261.491 220.829 260.206 209.88C258.92 198.932 259.007 192.767 263.521 192.765C269.28 192.762 267.931 219.568 263.271 235.634C263.271 235.634 270.618 223.959 273.212 213.98C275.805 204.002 282.431 208.323 280.127 217.255C277.822 226.186 268.89 231.17 265.433 240.859C265.433 240.859 276.933 230.216 280.605 234.408C282.675 236.77 277.438 238.471 275.167 239.559C264.156 244.832 261.336 258.02 261.336 258.02L255.518 257.01Z" fill="#FFEA00" stroke="#263238" stroke-width="0.62" stroke-miterlimit="10" stroke-linecap="round" stroke-linejoin="round"/>
<path d="M263.882 219.46C264.164 215.337 264.373 211.176 263.884 207.06" stroke="#263238" stroke-width="0.62" stroke-miterlimit="10" stroke-linecap="round" stroke-linejoin="round"/>
<path d="M254.933 230.028C257.554 237.904 258.663 246.243 258.856 254.521C261.052 243.494 262.888 232.377 263.758 221.16" stroke="#263238" stroke-width="0.62" stroke-miterlimit="10" stroke-linecap="round" stroke-linejoin="round"/>
<path d="M253.46 226.191C253.756 226.86 254.033 227.539 254.292 228.223" stroke="#263238" stroke-width="0.62" stroke-miterlimit="10" stroke-linecap="round" stroke-linejoin="round"/>
<path d="M272.198 225.996C269.192 231.428 265.872 237.293 261.178 241.461" stroke="#263238" stroke-width="0.62" stroke-miterlimit="10" stroke-linecap="round" stroke-linejoin="round"/>
<path d="M275.535 219.569C274.73 221.248 273.872 222.903 272.991 224.543" stroke="#263238" stroke-width="0.62" stroke-miterlimit="10" stroke-linecap="round" stroke-linejoin="round"/>
<path d="M265.428 243.97C263.378 245.665 261.191 247.495 259.755 249.768" stroke="#263238" stroke-width="0.62" stroke-miterlimit="10" stroke-linecap="round" stroke-linejoin="round"/>
<path d="M275.534 236.615C272.48 238.596 269.504 240.717 266.652 242.978" stroke="#263238" stroke-width="0.62" stroke-miterlimit="10" stroke-linecap="round" stroke-linejoin="round"/>
<path d="M276.359 250.546H241.071L243.802 287.891H273.628L276.359 250.546Z" fill="#263238"/>
<path d="M124.105 248.387L139.699 281.269H147.14L134.747 244.054L124.105 248.387Z" fill="white" stroke="#263238" stroke-width="0.62" stroke-miterlimit="10" stroke-linecap="round" stroke-linejoin="round"/>
<path d="M139.293 257.281C139.293 257.281 133.261 260.189 128.356 259.154L126.521 255.911C126.521 255.911 121.884 252.067 117.271 244.478C116.087 242.525 114.902 240.324 113.799 237.882C108.399 225.928 103.054 210.602 103.054 210.602L90.8775 181.003L90.2389 179.447L85.4959 165.59L114.096 150.685C114.096 150.685 117.953 170.426 117.705 175.516C117.463 180.612 131.326 223.777 132.858 228.929C134.389 234.081 139.293 248.992 138.066 253.797L139.293 257.281Z" fill="#FFEA00"/>
<mask id="mask3_249_5248" style="mask-type:luminance" maskUnits="userSpaceOnUse" x="85" y="150" width="55" height="110">
<path d="M139.293 257.281C139.293 257.281 133.261 260.189 128.356 259.154L126.521 255.911C126.521 255.911 121.884 252.067 117.271 244.478C116.087 242.525 114.902 240.324 113.799 237.882C108.399 225.928 103.054 210.602 103.054 210.602L90.8775 181.003L90.2389 179.447L85.4959 165.59L114.096 150.685C114.096 150.685 117.953 170.426 117.705 175.516C117.463 180.612 131.326 223.777 132.858 228.929C134.389 234.081 139.293 248.992 138.066 253.797L139.293 257.281Z" fill="white"/>
</mask>
<g mask="url(#mask3_249_5248)">
<path opacity="0.2" d="M117.587 244.057C117.482 244.206 117.382 244.342 117.271 244.479C116.087 242.526 114.903 240.325 113.799 237.882C108.399 225.928 103.054 210.602 103.054 210.602L90.8775 181.003L101.777 171.275L104.976 171.784C104.976 171.784 107.115 175.132 104.059 177.054C101.008 178.976 106.192 186.527 108.771 192.008C111.344 197.495 106.929 202.809 106.929 202.809C106.929 202.809 111.015 211.445 116.062 215.723C116.062 215.723 112.069 214.663 114.097 218.836C116.124 223.002 121.803 238 117.587 244.057Z" fill="black" fill-opacity="0.7"/>
</g>
<path d="M139.293 257.281C139.293 257.281 133.261 260.189 128.356 259.154L126.521 255.911C126.521 255.911 121.884 252.067 117.271 244.478C116.087 242.525 114.902 240.324 113.799 237.882C108.399 225.928 103.054 210.602 103.054 210.602L90.8775 181.003L90.2389 179.447L85.4959 165.59L114.096 150.685C114.096 150.685 117.953 170.426 117.705 175.516C117.463 180.612 131.326 223.777 132.858 228.929C134.389 234.081 139.293 248.992 138.066 253.797L139.293 257.281Z" stroke="#263238" stroke-width="0.62" stroke-miterlimit="10" stroke-linecap="round" stroke-linejoin="round"/>
<path d="M129.48 255.542C129.48 255.542 134.251 255.772 136.243 254.193" stroke="#263238" stroke-width="0.62" stroke-miterlimit="10" stroke-linecap="round" stroke-linejoin="round"/>
<path d="M138.471 287.824C136.916 287.129 138.345 281.269 138.345 281.269C138.345 281.269 136.253 279.865 138.343 278.41C138.343 278.41 140.681 280.682 144.279 279.374C144.279 279.374 144.687 275.449 147.14 275.954C147.14 275.954 147.769 278.44 149.208 279.859C153.108 283.707 158.146 284.147 158.989 286.002C159.241 286.557 158.935 287.823 158.935 287.823H138.471V287.824Z" fill="#263238"/>
<path d="M135.31 99.8027L153.109 126.53L177.309 107.436L182.869 110.237C182.869 110.237 160.14 137.848 152.618 138.75C145.096 139.651 127.069 113.639 127.069 113.639" fill="white"/>
<path d="M135.31 99.8027L153.109 126.53L177.309 107.436L182.869 110.237C182.869 110.237 160.14 137.848 152.618 138.75C145.096 139.651 127.069 113.639 127.069 113.639" stroke="#263238" stroke-width="0.62" stroke-miterlimit="10" stroke-linecap="round" stroke-linejoin="round"/>
<path d="M132.654 95.7078C132.654 95.7078 138.065 97.7073 141.335 103.43C144.605 109.154 148.039 114.059 148.039 114.059C148.039 114.059 140.124 122.726 133.78 125.178L126.216 122.562L132.654 95.7078Z" fill="#263238"/>
<path d="M89.9778 250.023L98.5624 281.269H105.941L102.746 245.502L89.9778 250.023Z" fill="white" stroke="#263238" stroke-width="0.62" stroke-miterlimit="10" stroke-linecap="round" stroke-linejoin="round"/>
<path d="M114.096 160.334L81.4881 144.389C81.4881 144.389 75.6012 161.788 75.9286 176.432C76.256 191.075 81.1112 211.141 81.4881 220.412C81.8651 229.683 81.2972 247.109 91.4354 259.154L92.6754 263.023C92.6754 263.023 102.01 264.331 104.953 263.023L104.462 259.377C104.462 259.377 108.487 251.25 105.453 238.169C102.419 225.087 100.947 177.175 100.947 177.175C100.947 177.175 104.585 174.045 106.057 170.923" fill="#FFEA00"/>
<path d="M114.096 160.334L81.4881 144.389C81.4881 144.389 75.6012 161.788 75.9286 176.432C76.256 191.075 81.1112 211.141 81.4881 220.412C81.8651 229.683 81.2972 247.109 91.4354 259.154L92.6754 263.023C92.6754 263.023 102.01 264.331 104.953 263.023L104.462 259.377C104.462 259.377 108.487 251.25 105.453 238.169C102.419 225.087 100.947 177.175 100.947 177.175C100.947 177.175 104.585 174.045 106.057 170.923" stroke="#263238" stroke-width="0.62" stroke-miterlimit="10" stroke-linecap="round" stroke-linejoin="round"/>
<path d="M83.1237 140.241C85.0848 129.175 87.6479 102.998 96.4779 97.023C105.308 91.0474 120.456 90.5371 126.57 92.9582C138.556 97.7056 138.745 99.9376 136.783 108.986C134.821 118.035 121.943 145.81 121.943 145.81L118.959 160.526C118.959 160.526 107.75 169.069 94.8975 165.488C79.8222 161.288 77.3881 151.763 77.3881 151.763L83.1237 140.241Z" fill="#263238"/>
<path d="M127.929 86.8613C127.724 87.2333 127.433 87.6053 127.067 87.9711C126.788 88.2439 126.54 88.5105 126.323 88.7709C125.287 89.9861 124.804 91.0773 124.643 92.0197C124.525 92.7327 124.587 93.3651 124.742 93.9045C125.157 95.3429 126.217 96.1489 126.217 96.1489C126.217 96.1489 126.36 100.092 121.468 100.57C115.584 101.14 112.28 95.0019 112.28 95.0019C119.608 84.9393 114.096 80.6861 114.096 80.6861C121.208 76.7367 130.626 82.0873 127.929 86.8613Z" fill="white" stroke="#263238" stroke-width="0.62" stroke-miterlimit="10" stroke-linecap="round" stroke-linejoin="round"/>
<path d="M126.323 88.7708C125.287 89.986 124.804 91.0772 124.643 92.0196C120.705 90.0766 120.46 87.2351 120.46 87.2351C120.46 87.2351 122.665 87.5184 125.325 88.6096C125.573 88.715 125.92 88.7584 126.323 88.7708Z" fill="#263238"/>
<path d="M112.984 76.1191C110.319 64.695 115.841 59.7443 119.458 58.2476C125.253 55.8495 132.786 59.6184 134.499 65.9648C136.213 72.3111 134.669 73.7563 134.749 76.3529C134.805 78.1738 135.927 79.0709 134.69 83.6403C133.873 86.6548 132.506 91.5509 127.36 90.6259C125.281 90.2526 122.258 88.8087 120.341 87.2537" fill="white"/>
<path d="M112.984 76.1191C110.319 64.695 115.841 59.7443 119.458 58.2476C125.253 55.8495 132.786 59.6184 134.499 65.9648C136.213 72.3111 134.669 73.7563 134.749 76.3529C134.805 78.1738 135.927 79.0709 134.69 83.6403C133.873 86.6548 132.506 91.5509 127.36 90.6259C125.281 90.2526 122.258 88.8087 120.341 87.2537" stroke="#263238" stroke-width="0.62" stroke-miterlimit="10" stroke-linecap="round" stroke-linejoin="round"/>
<path d="M112.282 59.1177C112.282 59.1177 112.989 53.8267 118.32 53.8267C120.701 53.8267 123.11 58.1946 126.537 56.6241C129.965 55.0536 133.341 55.2663 134.385 56.5026C136.594 59.1184 134.101 61.656 136.716 62.227C139.332 62.7981 140.166 65.3785 138.738 67.1877C137.31 68.9962 138.965 70.9126 138.679 72.214C137.943 75.5632 134.784 75.4535 134.784 75.4535C134.784 75.4535 136.223 67.5268 134.024 66.2192C132.12 65.0865 130.531 66.7208 130.531 66.7208C127.601 65.0251 124.279 66.3525 123.349 67.5392C121.636 69.729 122.798 72.2878 121.019 73.671C120.366 74.1794 118.506 74.5018 118.792 76.12C119.078 77.7382 117.555 78.8809 117.555 78.8809L116.412 82.3082C116.412 82.3082 117.708 85.8118 115.424 88.5318C114.721 89.3694 113.429 89.4636 111.086 87.9707C111.086 87.9707 113.294 86.8503 112.282 84.5563C111.704 83.2438 110.096 84.3331 108.878 82.6914C107.477 80.8029 108.887 78.0339 108.679 76.4145C108.513 75.1175 106.993 75.965 105.689 73.2054C105.33 72.444 105.062 68.551 107.406 66.2657C107.406 66.2657 104.961 61.0348 112.282 59.1177Z" fill="#263238"/>
<path d="M119.458 78.1189C119.458 78.1189 117.364 74.2154 115.174 75.1677C112.984 76.1194 114.507 80.7849 116.412 82.3077C118.316 83.8304 119.458 82.3077 119.458 82.3077" fill="white"/>
<path d="M119.458 78.1189C119.458 78.1189 117.364 74.2154 115.174 75.1677C112.984 76.1194 114.507 80.7849 116.412 82.3077C118.316 83.8304 119.458 82.3077 119.458 82.3077" stroke="#263238" stroke-width="0.62" stroke-miterlimit="10" stroke-linecap="round" stroke-linejoin="round"/>
<path d="M128.026 72.4068C128.026 72.4068 125.883 71.6101 124.738 74.1242" stroke="#263238" stroke-width="0.62" stroke-miterlimit="10" stroke-linecap="round" stroke-linejoin="round"/>
<path d="M135.31 71.0739C135.31 71.0739 133.072 70.5927 132.12 72.2134" stroke="#263238" stroke-width="0.62" stroke-miterlimit="10" stroke-linecap="round" stroke-linejoin="round"/>
<path d="M131.549 75.4531C131.549 75.4531 131.359 77.4526 132.12 77.8333C132.881 78.214 134.073 77.4086 133.715 79.0014C133.357 80.5942 131.527 80.689 131.527 80.689" stroke="#263238" stroke-width="0.62" stroke-miterlimit="10" stroke-linecap="round" stroke-linejoin="round"/>
<path d="M127.6 75.9792C127.6 76.5099 127.362 76.9408 127.069 76.9408C126.775 76.9408 126.537 76.5105 126.537 75.9792C126.537 75.4479 126.775 75.0176 127.069 75.0176C127.362 75.0182 127.6 75.4485 127.6 75.9792Z" fill="#263238" stroke="#263238" stroke-width="0.62" stroke-miterlimit="10" stroke-linecap="round" stroke-linejoin="round"/>
<path d="M133.717 75.4533C133.717 75.984 133.479 76.4149 133.186 76.4149C132.892 76.4149 132.654 75.9847 132.654 75.4533C132.654 74.922 132.892 74.4917 133.186 74.4917C133.479 74.4917 133.717 74.922 133.717 75.4533Z" fill="#263238" stroke="#263238" stroke-width="0.62" stroke-miterlimit="10" stroke-linecap="round" stroke-linejoin="round"/>
<path d="M127.6 82.2549C127.6 82.2549 129.936 83.5507 132.12 82.9846" stroke="#263238" stroke-width="0.62" stroke-miterlimit="10" stroke-linecap="round" stroke-linejoin="round"/>
<path d="M128.026 82.6917C128.026 82.6917 128.277 84.3812 129.86 84.5442C131.443 84.7079 131.527 83.1275 131.527 83.1275" stroke="#263238" stroke-width="0.62" stroke-miterlimit="10" stroke-linecap="round" stroke-linejoin="round"/>
<path d="M130.531 66.7199C130.531 66.7199 129.133 64.9405 127.069 65.9325C125.004 66.9251 125.679 69.1937 125.617 70.6042C125.556 72.0147 124.514 71.4548 123.471 72.2868C122.429 73.1183 123.103 74.4916 123.103 74.4916C123.103 74.4916 120.92 74.1289 122.441 72.2131C123.962 70.2973 125.188 70.6655 124.207 68.8874C123.226 67.1092 123.995 64.84 126.216 64.2882C128.438 63.7364 130.477 64.982 130.531 66.7199Z" fill="#263238"/>
<path d="M96.5641 287.824C96.5641 287.824 95.799 284.902 96.6936 283.819C98.3007 281.875 96.4977 280.244 98.1103 279.568L98.7861 280.353C98.9176 279.557 98.5412 277.137 101.533 276.822C105.149 276.44 105.218 279.072 105.413 279.939L105.354 278.728C106.896 278.728 106.097 280.267 108.435 282.785C110.219 284.707 110.223 287.171 110.124 287.825H96.5641V287.824Z" fill="#263238"/>
<path d="M138.629 108.99C137.353 114.123 135.219 119.336 131.527 123.216" stroke="white" stroke-width="0.62" stroke-miterlimit="10" stroke-linecap="round" stroke-linejoin="round"/>
<path d="M139.429 104.902C139.324 105.701 139.18 106.494 139.017 107.283" stroke="white" stroke-width="0.62" stroke-miterlimit="10" stroke-linecap="round" stroke-linejoin="round"/>
<path d="M100.815 154.052C99.8724 154.064 98.9275 153.986 98.0037 153.793" stroke="white" stroke-width="0.62" stroke-miterlimit="10" stroke-linecap="round" stroke-linejoin="round"/>
<path d="M120.344 145.946C115.19 149.756 108.85 153.246 102.404 153.954" stroke="white" stroke-width="0.62" stroke-miterlimit="10" stroke-linecap="round" stroke-linejoin="round"/>
<path d="M84.2682 140.222C84.2682 140.222 87.0483 140.922 91.3814 138.773" stroke="white" stroke-width="0.62" stroke-miterlimit="10" stroke-linecap="round" stroke-linejoin="round"/>
<path d="M119.572 102.334C120.526 102.439 121.494 102.409 122.441 102.256" stroke="white" stroke-width="0.62" stroke-miterlimit="10" stroke-linecap="round" stroke-linejoin="round"/>
<path d="M110.267 95.7078C111.937 98.6218 114.757 101.145 118.028 102.039" stroke="white" stroke-width="0.62" stroke-miterlimit="10" stroke-linecap="round" stroke-linejoin="round"/>
<path d="M84.2682 212.431C84.2682 212.431 93.8577 226.081 98.9647 227.615" stroke="#263238" stroke-width="0.62" stroke-miterlimit="10" stroke-linecap="round" stroke-linejoin="round"/>
<path d="M93.7877 259.376C93.7877 259.376 100.048 260.514 103.114 259.376" stroke="#263238" stroke-width="0.62" stroke-miterlimit="10" stroke-linecap="round" stroke-linejoin="round"/>
<path d="M106.218 206.154C111.288 211.497 116.604 217.138 122.82 221.162C124.037 221.95 125.347 222.735 126.782 223.042" stroke="#263238" stroke-width="0.62" stroke-miterlimit="10" stroke-linecap="round" stroke-linejoin="round"/>
<path d="M103.113 202.808C103.737 203.501 104.369 204.186 105.005 204.867" stroke="#263238" stroke-width="0.62" stroke-miterlimit="10" stroke-linecap="round" stroke-linejoin="round"/>
<path d="M107.55 176.441C107.55 176.441 105.374 177.667 102.404 177.667" stroke="#263238" stroke-width="0.62" stroke-miterlimit="10" stroke-linecap="round" stroke-linejoin="round"/>
<path d="M99.4093 177.667C99.4093 177.667 94.8969 172.149 90.6047 171.78" stroke="#263238" stroke-width="0.62" stroke-miterlimit="10" stroke-linecap="round" stroke-linejoin="round"/>
<path d="M95.006 118.835C95.006 118.835 79.7298 135.351 75.9726 134.73C72.216 134.109 70.2686 128.014 71.0907 126.333C71.9129 124.651 85.6812 108.651 85.6812 108.651L95.006 118.835Z" fill="white" stroke="#263238" stroke-width="0.62" stroke-miterlimit="10" stroke-linecap="round" stroke-linejoin="round"/>
<path d="M100.825 94.6973C100.825 94.6973 91.8037 97.2169 87.3 103.921C82.7963 110.625 80.671 112.261 80.671 112.261C80.671 112.261 85.2497 120.763 89.3373 123.38C93.425 125.996 102.091 121.254 102.091 121.254L100.825 94.6973Z" fill="#263238"/>
<path d="M99.9251 101.672C99.4427 100.858 98.7986 100.137 98.0037 99.6177" stroke="white" stroke-width="0.62" stroke-miterlimit="10" stroke-linecap="round" stroke-linejoin="round"/>
<path d="M90.1545 124.167C90.1545 124.167 91.1286 124.833 91.7486 124.833C94.2286 121.733 99.0794 122.139 100.319 118.419C102.799 114.079 102.179 108.499 100.69 103.313" stroke="white" stroke-width="0.62" stroke-miterlimit="10" stroke-linecap="round" stroke-linejoin="round"/>
<path d="M75.9726 134.73C71.6773 134.009 67.0986 133.739 64.4822 117.44C61.8658 101.142 61.8658 101.142 61.8658 101.142L67.7521 99.3816C67.7521 99.3816 75.0842 117.239 77.3862 121.7C79.6889 126.16 78.3807 128.983 78.3807 128.983" fill="white"/>
<path d="M75.9726 134.73C71.6773 134.009 67.0986 133.739 64.4822 117.44C61.8658 101.142 61.8658 101.142 61.8658 101.142L67.7521 99.3816C67.7521 99.3816 75.0842 117.239 77.3862 121.7C79.6889 126.16 78.3807 128.983 78.3807 128.983" stroke="#263238" stroke-width="0.62" stroke-miterlimit="10" stroke-linecap="round" stroke-linejoin="round"/>
<path d="M177.036 107.651C177.036 107.651 181.399 102.871 183.516 101.652C185.54 100.487 187.568 99.7086 187.992 99.8029C189.073 100.043 191.792 103.109 191.792 103.109C191.792 103.109 191.427 104.167 189.648 103.37C189.648 103.37 191.713 105.945 191.386 107.284C191.059 108.623 188.775 109.872 188.2 110.474C187.625 111.076 187.147 110.444 187.147 110.444C187.147 110.444 182.93 113.324 180.079 112.626" fill="white"/>
<path d="M177.036 107.651C177.036 107.651 181.399 102.871 183.516 101.652C185.54 100.487 187.568 99.7086 187.992 99.8029C189.073 100.043 191.792 103.109 191.792 103.109C191.792 103.109 191.427 104.167 189.648 103.37C189.648 103.37 191.713 105.945 191.386 107.284C191.059 108.623 188.775 109.872 188.2 110.474C187.625 111.076 187.147 110.444 187.147 110.444C187.147 110.444 182.93 113.324 180.079 112.626" stroke="#263238" stroke-width="0.62" stroke-miterlimit="10" stroke-linecap="round" stroke-linejoin="round"/>
<path d="M178.549 100.671L203.138 106.19V106.926L178.181 101.959C178.181 101.959 177.875 101.1 178.549 100.671Z" fill="#757575" stroke="#263238" stroke-width="0.62" stroke-miterlimit="10" stroke-linecap="round" stroke-linejoin="round"/>
<path d="M207.896 104.916C207.828 105.096 207.028 107.092 205.695 107.669C204.982 107.985 204.12 107.892 203.141 106.925V106.187C203.141 106.187 203.972 105.22 205.174 105.493C205.181 105.493 205.181 105.493 205.181 105.493C205.292 105.511 205.41 105.548 205.528 105.598C206.848 106.137 207.803 105.028 207.896 104.916Z" fill="#263238"/>
<path d="M207.896 104.916C207.828 105.096 207.028 107.092 205.695 107.669C205.863 107.241 206.086 106.627 205.98 106.565C205.813 106.472 205.243 106.497 204.914 106.367C204.592 106.237 205.292 105.517 205.181 105.493C205.292 105.511 205.41 105.548 205.528 105.598C206.848 106.137 207.803 105.028 207.896 104.916Z" fill="#FFEA00"/>
<path opacity="0.2" d="M207.896 104.916C207.828 105.096 207.028 107.092 205.695 107.669C205.863 107.241 206.086 106.627 205.98 106.565C205.813 106.472 205.243 106.497 204.914 106.367C204.592 106.237 205.292 105.517 205.181 105.493C205.292 105.511 205.41 105.548 205.528 105.598C206.848 106.137 207.803 105.028 207.896 104.916Z" fill="#263238"/>
<path d="M179.516 110.443C179.516 110.443 183.979 110.074 184.796 107.293C185.062 106.39 186.029 105.454 186.029 105.454C186.029 105.454 190.076 105.883 190.076 104.209L184.796 102.899C184.796 102.899 181.709 103.399 179.516 106.093" fill="white"/>
<path d="M179.516 110.443C179.516 110.443 183.979 110.074 184.796 107.293C185.062 106.39 186.029 105.454 186.029 105.454C186.029 105.454 190.076 105.883 190.076 104.209L184.796 102.899C184.796 102.899 181.709 103.399 179.516 106.093" stroke="#263238" stroke-width="0.62" stroke-miterlimit="10" stroke-linecap="round" stroke-linejoin="round"/>
<path d="M187.147 110.443C187.147 110.443 186.935 110.025 187.147 109.256C187.147 109.256 186 108.857 186.294 107.831C186.294 107.831 184.576 107.343 186.03 105.454" stroke="#263238" stroke-width="0.62" stroke-miterlimit="10" stroke-linecap="round" stroke-linejoin="round"/>
<path d="M186.294 107.832C186.294 107.832 188.919 106.453 189.31 105.699" stroke="#263238" stroke-width="0.62" stroke-miterlimit="10" stroke-linecap="round" stroke-linejoin="round"/>
<path d="M187.147 109.256C187.147 109.256 189.893 108.122 190.077 107.233" stroke="#263238" stroke-width="0.62" stroke-miterlimit="10" stroke-linecap="round" stroke-linejoin="round"/>
<path d="M187.803 101.305C187.803 101.305 188.226 102.623 189.499 103.129" stroke="#263238" stroke-width="0.62" stroke-miterlimit="10" stroke-linecap="round" stroke-linejoin="round"/>
<path d="M188.11 101.929C188.11 101.929 187.423 102.151 186.808 102.525" stroke="#263238" stroke-width="0.62" stroke-miterlimit="10" stroke-linecap="round" stroke-linejoin="round"/>
<path d="M39.2172 97.1487C36.6429 92.4088 37.8538 79.3169 49.2761 77.5902C64.9738 75.2174 58.8265 86.8523 68.9431 89.0595C79.0596 91.2667 76.6962 105.158 63.0115 106.927C52.4641 108.291 43.5119 105.057 39.2172 97.1487Z" fill="#757575" stroke="#263238" stroke-width="0.62" stroke-miterlimit="10" stroke-linecap="round" stroke-linejoin="round"/>
<path d="M67.0583 91.6012C67.0583 91.6012 65.8319 90.1845 64.8511 89.96C63.8702 89.7356 60.9265 90.7288 60.9265 90.7288C60.9265 90.7288 61.0492 92.1908 63.0115 92.2509C64.9738 92.3111 63.9924 93.2925 63.9924 93.2925C63.9924 93.2925 66.6379 94.5648 67.0583 91.6012Z" fill="white" stroke="#263238" stroke-width="0.62" stroke-miterlimit="10" stroke-linecap="round" stroke-linejoin="round"/>
<path d="M56.6293 80.7834C55.398 78.2148 52.6693 79.0133 51.606 79.9737C49.6437 81.7463 50.6252 83.4742 51.606 83.0037C52.5869 82.5331 57.8606 83.3521 56.6293 80.7834Z" fill="#FFEA00"/>
<path d="M44.5696 89.3872C44.7823 89.5093 45.0005 89.6265 45.2349 89.6978C46.2294 90.0004 47.4074 89.2892 47.602 88.2681C47.6337 88.1019 47.643 87.9302 47.6944 87.769C47.7831 87.4906 47.9889 87.2674 48.1352 87.0151C48.2816 86.7621 48.3634 86.4279 48.1966 86.188C47.9083 85.7707 47.2071 86.0069 46.7929 85.7143C46.4842 85.4961 46.4315 85.0577 46.1909 84.7657C45.8189 84.315 45.1338 84.336 44.5529 84.3962C44.3526 84.4173 44.1052 84.478 44.0643 84.6752C44.0426 84.7806 44.0922 84.8903 44.0718 84.9957C44.0265 85.2282 43.7177 85.2629 43.484 85.3032C42.5348 85.4663 42.0723 86.6083 42.3128 87.4782C42.5497 88.3344 43.825 88.9594 44.5696 89.3872Z" fill="#FFEA00"/>
<path d="M48.4862 96.3171C48.1929 95.8056 48.3262 95.1354 48.0478 94.6158C47.6907 93.9481 46.8233 93.7819 46.07 93.7069C45.1394 93.6145 44.2069 93.5482 43.2726 93.5079C43.2162 93.5054 43.1548 93.5048 43.1095 93.5376C43.037 93.5903 43.0419 93.697 43.0432 93.7862C43.0494 94.2444 42.7884 94.6561 42.6284 95.0851C42.2446 96.1174 43.4375 97.4101 44.1263 98.1052C44.636 98.6198 45.2901 99.024 46.0105 99.099C47.0279 99.205 47.9858 98.6576 48.8619 98.13C48.9865 98.0549 49.1161 97.9756 49.1948 97.8534C49.3591 97.5992 49.2488 97.2539 49.0665 97.0121C48.8842 96.7709 48.6368 96.5793 48.4862 96.3171Z" fill="#FFEA00"/>
<path d="M55.4153 99.056C54.5901 98.6468 53.6061 98.9512 52.7381 99.26C52.5174 99.3387 52.2756 99.4354 52.1739 99.6468C52.0282 99.95 52.249 100.214 52.244 100.51C52.2366 100.99 52.0301 100.9 51.8813 101.279C51.6395 101.893 52.0289 102.369 52.5559 102.63C53.7748 103.233 55.0675 104.407 56.3999 103.297C56.8921 102.886 57.1048 102.202 57.044 101.564C56.9833 100.926 56.6776 100.331 56.2845 99.8248C56.0458 99.5167 55.765 99.2296 55.4153 99.056Z" fill="#FFEA00"/>
<path d="M68.0565 99.8204C68.0038 99.7249 67.9343 99.6344 67.8382 99.583C67.7341 99.5278 67.6113 99.5247 67.4941 99.5259C66.8512 99.5321 66.1915 99.627 65.5765 99.4391C65.2274 99.3325 64.9118 99.139 64.5739 99.0014C64.236 98.8631 63.851 98.7819 63.5081 98.9084C62.8162 99.1645 63.1709 99.5458 63.1802 99.994C63.1938 100.651 62.6321 101.171 62.6612 101.835C62.686 102.405 63.1857 102.863 63.7313 103.028C64.2769 103.192 64.8616 103.125 65.4277 103.057C65.8418 103.008 66.2678 102.955 66.6336 102.754C66.8884 102.614 67.1017 102.409 67.3032 102.199C67.6119 101.876 67.907 101.529 68.0763 101.115C68.2443 100.702 68.2722 100.212 68.0565 99.8204Z" fill="#FFEA00"/>
</g>
<defs>
<filter id="filter0_d_249_5248" x="-2.2322" y="-1.68136" width="336.481" height="336.481" filterUnits="userSpaceOnUse" color-interpolation-filters="sRGB">
<feFlood flood-opacity="0" result="BackgroundImageFix"/>
<feColorMatrix in="SourceAlpha" type="matrix" values="0 0 0 0 0 0 0 0 0 0 0 0 0 0 0 0 0 0 127 0" result="hardAlpha"/>
<feOffset dx="10.5085" dy="11.5593"/>
<feGaussianBlur stdDeviation="6.62034"/>
<feComposite in2="hardAlpha" operator="out"/>
<feColorMatrix type="matrix" values="0 0 0 0 0 0 0 0 0 0 0 0 0 0 0 0 0 0 0.25 0"/>
<feBlend mode="normal" in2="BackgroundImageFix" result="effect1_dropShadow_249_5248"/>
<feBlend mode="normal" in="SourceGraphic" in2="effect1_dropShadow_249_5248" result="shape"/>
</filter>
</defs>
</svg>
