<svg width="316" height="322" viewBox="0 0 316 322" fill="none" xmlns="http://www.w3.org/2000/svg">
<g filter="url(#filter0_d_250_3989)">
<path d="M82.6921 90.7423C82.6921 90.7423 115.162 61.0216 160.55 67.7214C205.938 74.4209 241.216 110.657 270.554 139.233C299.892 167.809 304.178 207.567 282.079 235.76C259.979 263.952 231.67 247.867 191.575 263.282C151.48 278.698 143.034 289.051 101.362 279.538C59.6887 270.027 33.0308 217.539 43.662 166.001C54.2941 114.463 82.6921 90.7423 82.6921 90.7423Z" fill="#FFEA00"/>
<path opacity="0.7" d="M82.6921 90.7423C82.6921 90.7423 115.162 61.0216 160.55 67.7214C205.938 74.4209 241.216 110.657 270.554 139.233C299.892 167.809 304.178 207.567 282.079 235.76C259.979 263.952 231.67 247.867 191.575 263.282C151.48 278.698 143.034 289.051 101.362 279.538C59.6887 270.027 33.0308 217.539 43.662 166.001C54.2941 114.463 82.6921 90.7423 82.6921 90.7423Z" fill="white"/>
<path d="M221.239 210.098C221.094 210.112 220.946 210.104 220.797 210.073L121.443 189.148L70.6174 203.688C69.8363 203.91 69.0258 203.46 68.8024 202.681C68.5796 201.901 69.0308 201.089 69.8098 200.866L120.986 186.226C121.216 186.161 121.458 186.151 121.692 186.2L221.402 207.201C222.195 207.368 222.703 208.146 222.536 208.939C222.4 209.583 221.861 210.039 221.239 210.098Z" fill="#BFBFBF" stroke="#263238" stroke-width="1.09195" stroke-miterlimit="10" stroke-linecap="round" stroke-linejoin="round"/>
<path d="M140.433 241.808C140.095 241.84 139.77 241.633 139.664 241.297L118.731 179.606C118.135 177.706 116.475 176.304 114.501 176.036L108.907 175.276C108.506 175.221 108.224 174.852 108.279 174.45C108.333 174.047 108.704 173.767 109.105 173.821L114.699 174.582C117.234 174.926 119.367 176.726 120.131 179.168L141.065 240.858C141.186 241.244 140.971 241.656 140.585 241.778C140.534 241.793 140.483 241.803 140.433 241.808Z" fill="#BFBFBF" stroke="#263238" stroke-width="1.09195" stroke-miterlimit="10" stroke-linecap="round" stroke-linejoin="round"/>
<path d="M216.267 224.154C216.187 224.161 216.105 224.156 216.023 224.136L128.057 204.131L77.7463 221.123C77.3705 221.269 76.9435 221.083 76.7968 220.705C76.6502 220.327 76.8372 219.902 77.2152 219.755L127.741 202.679C127.882 202.625 128.035 202.615 128.181 202.651L216.372 222.71C216.766 222.807 217.007 223.204 216.91 223.598C216.834 223.909 216.569 224.125 216.267 224.154Z" fill="#BFBFBF" stroke="#263238" stroke-width="1.09195" stroke-miterlimit="10" stroke-linecap="round" stroke-linejoin="round"/>
<path d="M211.556 243.256C211.477 243.263 211.395 243.258 211.313 243.239L134.341 223.283L86.1839 243.638C85.8077 243.786 85.3813 243.598 85.2343 243.219C85.0877 242.842 85.2748 242.416 85.6528 242.27L134.025 221.832C134.164 221.778 134.318 221.768 134.464 221.803L211.659 241.812C212.053 241.908 212.294 242.304 212.199 242.698C212.123 243.01 211.858 243.227 211.556 243.256Z" fill="#BFBFBF" stroke="#263238" stroke-width="1.09195" stroke-miterlimit="10" stroke-linecap="round" stroke-linejoin="round"/>
<path d="M85.5362 199.466L84.1242 199.87L103.893 256.842C104.002 257.173 104.325 257.374 104.658 257.342C104.712 257.336 104.766 257.325 104.82 257.307C105.205 257.18 105.413 256.765 105.286 256.381L85.5362 199.466Z" fill="#BFBFBF" stroke="#263238" stroke-width="1.09195" stroke-miterlimit="10" stroke-linecap="round" stroke-linejoin="round"/>
<path d="M100.923 195.075L99.5106 195.479L119.491 249.879C119.599 250.211 119.923 250.413 120.257 250.382C120.31 250.377 120.364 250.366 120.416 250.349C120.801 250.224 121.012 249.809 120.886 249.424L100.923 195.075Z" fill="#BFBFBF" stroke="#263238" stroke-width="1.09195" stroke-miterlimit="10" stroke-linecap="round" stroke-linejoin="round"/>
<path d="M113.89 191.353L112.478 191.757L131.944 244.711C132.052 245.043 132.376 245.246 132.71 245.214C132.763 245.209 132.816 245.198 132.869 245.181C133.254 245.056 133.464 244.642 133.339 244.256L113.89 191.353Z" fill="#BFBFBF" stroke="#263238" stroke-width="1.09195" stroke-miterlimit="10" stroke-linecap="round" stroke-linejoin="round"/>
<path d="M184.179 202.36L184.179 202.362L178.737 249.878C178.678 250.279 178.955 250.652 179.355 250.712C179.415 250.722 179.475 250.722 179.533 250.717C179.861 250.686 180.138 250.435 180.189 250.095L185.621 202.665L184.179 202.36Z" fill="#BFBFBF" stroke="#263238" stroke-width="1.09195" stroke-miterlimit="10" stroke-linecap="round" stroke-linejoin="round"/>
<path d="M169.399 199.248C169.356 199.331 169.327 199.424 169.319 199.523L167.173 247.042C167.139 247.446 167.439 247.8 167.843 247.835C167.887 247.838 167.931 247.838 167.974 247.834C168.321 247.8 168.605 247.523 168.635 247.164L170.782 199.645C170.785 199.609 170.782 199.574 170.78 199.539L169.399 199.248Z" fill="#BFBFBF" stroke="#263238" stroke-width="1.09195" stroke-miterlimit="10" stroke-linecap="round" stroke-linejoin="round"/>
<path d="M201.574 206.024C201.573 206.027 201.572 206.03 201.571 206.033L192.339 253.187C192.255 253.584 192.508 253.973 192.905 254.057C192.98 254.073 193.054 254.077 193.126 254.07C193.437 254.041 193.707 253.813 193.775 253.492L203.007 206.337C203.008 206.334 203.007 206.331 203.008 206.327L201.574 206.024Z" fill="#BFBFBF" stroke="#263238" stroke-width="1.09195" stroke-miterlimit="10" stroke-linecap="round" stroke-linejoin="round"/>
<path d="M156.106 196.448C156.082 196.521 156.065 196.599 156.064 196.68L156.463 244.786C156.46 245.192 156.786 245.523 157.191 245.526C157.217 245.526 157.242 245.525 157.267 245.522C157.637 245.487 157.927 245.177 157.93 244.798L157.532 196.748L156.106 196.448Z" fill="#BFBFBF" stroke="#263238" stroke-width="1.09195" stroke-miterlimit="10" stroke-linecap="round" stroke-linejoin="round"/>
<path d="M142.847 193.655L145.794 242.216C145.821 242.621 146.171 242.926 146.575 242.9C146.582 242.899 146.589 242.899 146.596 242.898C146.99 242.86 147.285 242.516 147.258 242.119L144.336 193.969L142.847 193.655Z" fill="#BFBFBF" stroke="#263238" stroke-width="1.09195" stroke-miterlimit="10" stroke-linecap="round" stroke-linejoin="round"/>
<path d="M206.161 256.789C206.061 256.798 205.958 256.792 205.854 256.769L141.171 242.267L94.4459 262.47C93.9509 262.685 93.3746 262.456 93.1595 261.961C92.9454 261.465 93.1732 260.889 93.6696 260.674L140.686 240.345C140.875 240.262 141.086 240.243 141.288 240.288L206.282 254.86C206.809 254.978 207.141 255.501 207.022 256.029C206.928 256.452 206.571 256.749 206.161 256.789Z" fill="#BFBFBF" stroke="#263238" stroke-width="1.09195" stroke-miterlimit="10" stroke-linecap="round" stroke-linejoin="round"/>
<path d="M175.157 273.168C175.058 273.177 174.956 273.172 174.854 273.149L104.632 257.88C104.104 257.764 103.77 257.242 103.887 256.715C104.003 256.187 104.525 255.852 105.053 255.97L175.275 271.239C175.802 271.354 176.136 271.876 176.02 272.404C175.926 272.829 175.569 273.129 175.157 273.168Z" fill="#BFBFBF" stroke="#263238" stroke-width="1.09195" stroke-miterlimit="10" stroke-linecap="round" stroke-linejoin="round"/>
<path d="M187.436 266.969C187.331 266.979 187.222 266.972 187.113 266.946L120.25 250.781C119.725 250.654 119.402 250.125 119.529 249.6C119.656 249.074 120.186 248.752 120.71 248.879L187.574 265.044C188.098 265.172 188.421 265.7 188.295 266.225C188.194 266.642 187.84 266.931 187.436 266.969Z" fill="#BFBFBF" stroke="#263238" stroke-width="1.09195" stroke-miterlimit="10" stroke-linecap="round" stroke-linejoin="round"/>
<path d="M197.634 261.08C197.531 261.089 197.423 261.083 197.317 261.057L132.526 245.791C132 245.667 131.674 245.14 131.798 244.614C131.922 244.089 132.448 243.761 132.975 243.886L197.766 259.152C198.292 259.276 198.618 259.803 198.494 260.329C198.394 260.748 198.04 261.041 197.634 261.08Z" fill="#BFBFBF" stroke="#263238" stroke-width="1.09195" stroke-miterlimit="10" stroke-linecap="round" stroke-linejoin="round"/>
<path d="M154.169 312.868C156.221 315.763 155.911 319.51 153.476 321.235C151.042 322.961 147.404 322.012 145.351 319.116C143.3 316.221 143.61 312.474 146.045 310.749C148.48 309.023 152.117 309.972 154.169 312.868Z" fill="#263238" stroke="#263238" stroke-width="1.09195" stroke-miterlimit="10" stroke-linecap="round" stroke-linejoin="round"/>
<path d="M152.383 314.766C153.629 316.525 153.441 318.8 151.962 319.849C150.482 320.897 148.273 320.32 147.026 318.562C145.779 316.802 145.968 314.527 147.447 313.478C148.927 312.43 151.136 313.006 152.383 314.766Z" fill="white" stroke="#263238" stroke-width="1.09195" stroke-miterlimit="10" stroke-linecap="round" stroke-linejoin="round"/>
<path d="M148.282 307.135L147.355 315.829C147.259 316.724 147.719 317.587 148.515 318.006C149.474 318.512 150.659 318.242 151.305 317.371L157.203 309.415L148.282 307.135Z" fill="white" stroke="#263238" stroke-width="1.09195" stroke-miterlimit="10" stroke-linecap="round" stroke-linejoin="round"/>
<path d="M176.605 301.012C174.553 298.117 174.863 294.371 177.298 292.645C179.733 290.92 183.37 291.869 185.422 294.764C187.474 297.66 187.164 301.406 184.729 303.131C182.294 304.857 178.657 303.908 176.605 301.012Z" fill="#263238" stroke="#263238" stroke-width="1.09195" stroke-miterlimit="10" stroke-linecap="round" stroke-linejoin="round"/>
<path d="M183.627 296.671C184.873 298.43 184.685 300.706 183.205 301.754C181.726 302.802 179.517 302.226 178.27 300.467C177.023 298.708 177.212 296.432 178.691 295.384C180.17 294.335 182.38 294.912 183.627 296.671Z" fill="white" stroke="#263238" stroke-width="1.09195" stroke-miterlimit="10" stroke-linecap="round" stroke-linejoin="round"/>
<path d="M179.526 289.04L178.598 297.735C178.503 298.63 178.963 299.493 179.759 299.912C180.718 300.418 181.903 300.148 182.549 299.277L188.447 291.321L179.526 289.04Z" fill="white" stroke="#263238" stroke-width="1.09195" stroke-miterlimit="10" stroke-linecap="round" stroke-linejoin="round"/>
<path d="M131.541 291.996C129.489 289.101 129.8 285.355 132.235 283.629C134.67 281.904 138.307 282.853 140.359 285.748C142.41 288.644 142.1 292.39 139.665 294.115C137.23 295.841 133.593 294.892 131.541 291.996Z" fill="#263238" stroke="#263238" stroke-width="1.09195" stroke-miterlimit="10" stroke-linecap="round" stroke-linejoin="round"/>
<path d="M138.561 287.657C139.808 289.416 139.619 291.692 138.14 292.74C136.661 293.789 134.451 293.212 133.204 291.453C131.958 289.694 132.147 287.418 133.626 286.37C135.105 285.322 137.315 285.898 138.561 287.657Z" fill="white" stroke="#263238" stroke-width="1.09195" stroke-miterlimit="10" stroke-linecap="round" stroke-linejoin="round"/>
<path d="M134.46 280.026L133.533 288.721C133.438 289.616 133.897 290.478 134.693 290.898C135.653 291.404 136.837 291.134 137.484 290.262L143.382 282.306L134.46 280.026Z" fill="white" stroke="#263238" stroke-width="1.09195" stroke-miterlimit="10" stroke-linecap="round" stroke-linejoin="round"/>
<path d="M98.5622 308.243C96.5104 305.348 96.8209 301.602 99.2557 299.876C101.691 298.151 105.328 299.1 107.38 301.995C109.431 304.891 109.121 308.637 106.686 310.362C104.251 312.088 100.614 311.139 98.5622 308.243Z" fill="#263238" stroke="#263238" stroke-width="1.09195" stroke-miterlimit="10" stroke-linecap="round" stroke-linejoin="round"/>
<path d="M105.581 303.9C106.828 305.659 106.639 307.935 105.16 308.983C103.681 310.032 101.471 309.455 100.224 307.696C98.9777 305.937 99.1664 303.662 100.646 302.613C102.126 301.565 104.335 302.141 105.581 303.9Z" fill="white" stroke="#263238" stroke-width="1.09195" stroke-miterlimit="10" stroke-linecap="round" stroke-linejoin="round"/>
<path d="M101.48 296.27L100.553 304.965C100.458 305.86 100.917 306.722 101.713 307.142C102.672 307.648 103.857 307.378 104.504 306.507L110.402 298.55L101.48 296.27Z" fill="white" stroke="#263238" stroke-width="1.09195" stroke-miterlimit="10" stroke-linecap="round" stroke-linejoin="round"/>
<path d="M162.38 310.805C161.341 310.904 160.281 310.839 159.236 310.604L97.5417 296.708C95.834 296.324 94.3731 295.222 93.534 293.685C92.6037 291.98 92.544 289.916 93.3743 288.161L103.961 265.43C104.247 264.824 104.908 264.488 105.567 264.617L148.295 272.972C149.091 273.126 149.611 273.896 149.457 274.693C149.303 275.488 148.535 276.008 147.737 275.854L128.741 272.172C128.739 272.21 128.735 272.248 128.73 272.286L128.654 272.836C128.477 274.129 128.939 275.434 129.892 276.326C130.44 276.84 131.121 277.19 131.858 277.338L191.369 289.244C192.371 289.445 193.135 290.226 193.313 291.232C193.491 292.238 193.043 293.233 192.171 293.767L166.634 309.382C165.322 310.183 163.871 310.663 162.38 310.805ZM106.351 267.446L96.0277 289.416C95.5972 290.325 95.6283 291.395 96.1106 292.278C96.5456 293.074 97.3019 293.645 98.1866 293.844L159.881 307.74C161.679 308.145 163.533 307.838 165.102 306.877L189.618 291.886L131.281 280.215C130.007 279.96 128.832 279.356 127.884 278.467C126.239 276.925 125.317 274.573 125.623 272.34L125.698 271.79C125.711 271.697 125.732 271.607 125.762 271.52L106.351 267.446Z" fill="white" stroke="#263238" stroke-width="1.09195" stroke-miterlimit="10" stroke-linecap="round" stroke-linejoin="round"/>
<path d="M128.653 272.836L128.74 272.171L125.762 271.52L125.623 272.34C125.486 273.338 125.704 274.433 125.984 275.374L129.871 276.305C128.933 275.413 128.477 274.119 128.653 272.836Z" fill="#263238" stroke="#263238" stroke-width="1.09195" stroke-miterlimit="10" stroke-linecap="round" stroke-linejoin="round"/>
<path d="M58.2102 191.75C56.7416 191.89 55.3486 190.864 54.9814 189.292C54.5787 187.567 55.5635 185.839 57.1807 185.431L106.203 173.072C107.82 172.666 109.457 173.732 109.86 175.457C110.262 177.181 109.277 178.91 107.66 179.318L58.6384 191.676C58.4956 191.712 58.3524 191.737 58.2102 191.75Z" fill="#263238" stroke="#263238" stroke-width="1.09195" stroke-miterlimit="10" stroke-linecap="round" stroke-linejoin="round"/>
<path d="M72.7177 203.949C72.3905 203.98 72.0717 203.786 71.9569 203.463L68.6233 194.034C67.9689 192.183 66.3523 190.88 64.4047 190.634L56.5387 189.64C56.1368 189.59 55.8519 189.222 55.9027 188.82C55.9534 188.419 56.3214 188.135 56.7226 188.184L64.5884 189.178C67.0904 189.494 69.1664 191.167 70.0069 193.544L73.3405 202.973C73.4756 203.356 73.2751 203.775 72.8933 203.91C72.8349 203.93 72.776 203.943 72.7177 203.949Z" fill="white" stroke="#263238" stroke-width="1.09195" stroke-miterlimit="10" stroke-linecap="round" stroke-linejoin="round"/>
<path d="M165.958 278.132C165.885 278.139 165.81 278.135 165.737 278.12L93.3532 262.924C93.1024 262.871 92.8976 262.691 92.8123 262.45L71.957 203.461C71.8219 203.079 72.0224 202.66 72.4042 202.525C72.7865 202.389 73.2054 202.59 73.3406 202.972L94.0587 261.571L165.784 276.629L206.069 255.813L220.398 208.423C220.515 208.035 220.922 207.816 221.313 207.934C221.7 208.051 221.92 208.46 221.803 208.848L207.384 256.535C207.326 256.725 207.194 256.884 207.018 256.974L166.226 278.052C166.141 278.097 166.05 278.123 165.958 278.132Z" fill="white" stroke="#263238" stroke-width="1.09195" stroke-miterlimit="10" stroke-linecap="round" stroke-linejoin="round"/>
<path d="M165.958 278.132C165.924 278.135 165.888 278.136 165.852 278.134C165.448 278.115 165.135 277.771 165.155 277.366L167.539 228.479C167.558 228.074 167.898 227.761 168.307 227.782C168.712 227.801 169.024 228.145 169.005 228.55L166.621 277.437C166.603 277.806 166.316 278.098 165.958 278.132Z" fill="white" stroke="#263238" stroke-width="1.09195" stroke-miterlimit="10" stroke-linecap="round" stroke-linejoin="round"/>
<path d="M176.38 272.645C176.329 272.65 176.276 272.65 176.223 272.643C175.821 272.596 175.533 272.23 175.581 271.828L181.23 224.389C181.278 223.986 181.647 223.699 182.045 223.747C182.447 223.794 182.735 224.159 182.687 224.562L177.038 272.001C176.996 272.351 176.716 272.613 176.38 272.645Z" fill="white" stroke="#263238" stroke-width="1.09195" stroke-miterlimit="10" stroke-linecap="round" stroke-linejoin="round"/>
<path d="M188.139 266.837C188.079 266.842 188.018 266.841 187.957 266.831C187.556 266.77 187.282 266.394 187.343 265.994L194.477 219.782C194.539 219.381 194.916 219.107 195.314 219.168C195.715 219.23 195.989 219.605 195.928 220.006L188.794 266.218C188.742 266.557 188.465 266.806 188.139 266.837Z" fill="white" stroke="#263238" stroke-width="1.09195" stroke-miterlimit="10" stroke-linecap="round" stroke-linejoin="round"/>
<path d="M198.329 260.982C198.259 260.988 198.185 260.985 198.112 260.97C197.715 260.889 197.46 260.501 197.54 260.104L207.016 213.864C207.098 213.467 207.487 213.211 207.882 213.293C208.279 213.374 208.535 213.762 208.454 214.159L198.978 260.399C198.912 260.723 198.642 260.952 198.329 260.982Z" fill="white" stroke="#263238" stroke-width="1.09195" stroke-miterlimit="10" stroke-linecap="round" stroke-linejoin="round"/>
<path d="M153.314 274.645C153.301 274.646 153.287 274.647 153.273 274.648C152.868 274.663 152.527 274.348 152.51 273.943L150.542 224.493C150.526 224.089 150.826 223.739 151.246 223.731C151.651 223.715 151.992 224.03 152.008 224.435L153.977 273.885C153.993 274.276 153.699 274.608 153.314 274.645Z" fill="white" stroke="#263238" stroke-width="1.09195" stroke-miterlimit="10" stroke-linecap="round" stroke-linejoin="round"/>
<path d="M141.786 272.615C141.389 272.653 141.033 272.366 140.988 271.968L135.1 220.35C135.054 219.947 135.343 219.584 135.746 219.538C136.13 219.476 136.512 219.781 136.557 220.183L142.445 271.801C142.491 272.204 142.202 272.568 141.799 272.614C141.795 272.614 141.791 272.615 141.786 272.615Z" fill="white" stroke="#263238" stroke-width="1.09195" stroke-miterlimit="10" stroke-linecap="round" stroke-linejoin="round"/>
<path d="M130.185 269.81C129.797 269.847 129.445 269.573 129.39 269.183L121.859 216.745C121.802 216.343 122.081 215.971 122.482 215.914C122.886 215.848 123.255 216.135 123.312 216.536L130.842 268.974C130.899 269.376 130.621 269.748 130.22 269.805C130.208 269.807 130.196 269.809 130.185 269.81Z" fill="white" stroke="#263238" stroke-width="1.09195" stroke-miterlimit="10" stroke-linecap="round" stroke-linejoin="round"/>
<path d="M119.818 267.669C119.445 267.705 119.1 267.451 119.029 267.076L108.852 213.521C108.777 213.123 109.038 212.739 109.436 212.663C109.83 212.586 110.218 212.849 110.294 213.247L120.47 266.802C120.546 267.201 120.284 267.585 119.886 267.66C119.864 267.664 119.841 267.667 119.818 267.669Z" fill="white" stroke="#263238" stroke-width="1.09195" stroke-miterlimit="10" stroke-linecap="round" stroke-linejoin="round"/>
<path d="M110.283 266.036C109.93 266.069 109.596 265.844 109.504 265.49L95.0025 209.61C94.9003 209.218 95.1358 208.818 95.5285 208.716C95.9187 208.611 96.3213 208.849 96.4234 209.242L110.925 265.121C111.026 265.513 110.791 265.914 110.399 266.016C110.36 266.026 110.321 266.033 110.283 266.036Z" fill="white" stroke="#263238" stroke-width="1.09195" stroke-miterlimit="10" stroke-linecap="round" stroke-linejoin="round"/>
<path d="M101.273 263.767C100.941 263.799 100.619 263.6 100.508 263.27L81.4232 206.459C81.2942 206.075 81.5009 205.659 81.8855 205.53C82.2714 205.402 82.6857 205.607 82.8146 205.991L101.899 262.803C102.028 263.187 101.822 263.603 101.438 263.732C101.383 263.75 101.327 263.762 101.273 263.767Z" fill="white" stroke="#263238" stroke-width="1.09195" stroke-miterlimit="10" stroke-linecap="round" stroke-linejoin="round"/>
<path d="M167.799 246.103C167.777 246.105 167.758 246.106 167.74 246.106C165.171 246.153 86.0984 224.341 77.0908 221.853C76.7 221.746 76.4711 221.341 76.5785 220.951C76.686 220.56 77.0889 220.329 77.4811 220.438C101.728 227.134 165.206 244.532 167.726 244.639C167.73 244.638 167.734 244.638 167.738 244.637C169.846 244.437 198.572 231.916 217.397 223.532C217.768 223.367 218.201 223.534 218.365 223.904C218.53 224.274 218.364 224.708 217.994 224.873C210.106 228.386 170.857 245.812 167.799 246.103Z" fill="white" stroke="#263238" stroke-width="1.09195" stroke-miterlimit="10" stroke-linecap="round" stroke-linejoin="round"/>
<path d="M167.481 263.33C166.495 263.424 108.797 249.341 84.0352 243.283C83.6414 243.186 83.4003 242.789 83.497 242.395C83.5931 242.002 83.9898 241.76 84.3844 241.857C111.949 248.602 164.205 261.325 167.345 261.853C169.516 261.048 195.362 248.568 212.512 240.226C212.876 240.05 213.316 240.201 213.493 240.565C213.671 240.93 213.519 241.369 213.154 241.546C196.507 249.643 168.438 263.239 167.481 263.33Z" fill="white" stroke="#263238" stroke-width="1.09195" stroke-miterlimit="10" stroke-linecap="round" stroke-linejoin="round"/>
<path d="M172.515 229.976C172.347 229.992 172.176 229.979 172.01 229.936L69.8484 203.697C69.0632 203.496 68.5905 202.696 68.7919 201.911C68.9932 201.126 69.7936 200.653 70.5783 200.855L172.271 226.973L220.545 207.277C221.295 206.971 222.152 207.332 222.458 208.082C222.764 208.832 222.404 209.689 221.653 209.995L172.93 229.874C172.797 229.928 172.657 229.962 172.515 229.976Z" fill="white" stroke="#263238" stroke-width="1.09195" stroke-miterlimit="10" stroke-linecap="round" stroke-linejoin="round"/>
<path d="M166.645 279.401C166.477 279.417 166.306 279.404 166.141 279.362L90.6742 263.407C89.889 263.205 89.4162 262.405 89.6176 261.62C89.819 260.835 90.6194 260.362 91.4041 260.564L166.401 276.398L207.985 253.416C208.735 253.109 209.592 253.47 209.898 254.221C210.204 254.971 209.844 255.827 209.094 256.134L167.06 279.299C166.927 279.354 166.787 279.388 166.645 279.401Z" fill="white" stroke="#263238" stroke-width="1.09195" stroke-miterlimit="10" stroke-linecap="round" stroke-linejoin="round"/>
<path d="M180.155 46.0132L201.116 48.2567L173.651 66.8905L153.962 63.8865L180.155 46.0132Z" fill="white" stroke="#263238" stroke-width="1.09195" stroke-miterlimit="10" stroke-linecap="round" stroke-linejoin="round"/>
<path d="M190.59 47.1779L164.856 65.5875L162.948 65.2302L188.599 47.0535L190.59 47.1779Z" fill="#FFEA00" stroke="#263238" stroke-width="1.09195" stroke-miterlimit="10" stroke-linecap="round" stroke-linejoin="round"/>
<path d="M173.651 66.8905L184.137 95.4995L164.015 90.3033L153.962 63.8866L173.651 66.8905Z" fill="white" stroke="#263238" stroke-width="1.09195" stroke-miterlimit="10" stroke-linecap="round" stroke-linejoin="round"/>
<path d="M162.948 65.2301L171.841 92.1854L174.053 92.9801L164.856 65.5874L162.948 65.2301Z" fill="#FFEA00" stroke="#263238" stroke-width="1.09195" stroke-miterlimit="10" stroke-linecap="round" stroke-linejoin="round"/>
<path d="M201.116 48.2566L210.765 76.3611L184.137 95.4993L173.651 66.8904L201.116 48.2566Z" fill="white" stroke="#263238" stroke-width="1.09195" stroke-miterlimit="10" stroke-linecap="round" stroke-linejoin="round"/>
<path d="M170.198 52.8775L189.296 56.3062L187.735 57.4628L168.766 53.8799L170.198 52.8775Z" fill="#FFEA00" stroke="#263238" stroke-width="1.09195" stroke-miterlimit="10" stroke-linecap="round" stroke-linejoin="round"/>
<path d="M189.296 56.3064L199.374 84.4894L197.878 85.5977L187.735 57.463L189.296 56.3064Z" fill="#FFEA00" stroke="#263238" stroke-width="1.09195" stroke-miterlimit="10" stroke-linecap="round" stroke-linejoin="round"/>
<path d="M177.194 54.8561C177.194 54.8561 186.147 50.9311 189.058 50.0663C191.969 49.2016 189.733 52.2791 188.743 53.5964C187.752 54.9136 187.176 54.995 184.317 54.9473C181.458 54.8992 177.194 54.8561 177.194 54.8561Z" fill="#FFEA00" stroke="#263238" stroke-width="1.09195" stroke-miterlimit="10" stroke-linecap="round" stroke-linejoin="round"/>
<path d="M177.853 54.0487C178.514 54.1148 178.14 55.72 178.074 56.0136C177.755 57.4409 177.203 58.9091 176.502 60.1893C175.634 61.7742 174.413 63.1584 173.269 64.5449C173.132 64.7106 172.995 64.8769 172.857 65.0424C172.811 65.0969 172.601 65.3398 172.841 65.06C173.104 64.7531 172.804 65.1121 172.73 65.2104C172.446 65.5836 172.18 65.969 171.932 66.367C171.505 67.0572 171.135 67.7831 170.843 68.5408C170.279 70.0025 169.956 71.6322 170.171 73.1972C170.64 76.6184 173.402 79.132 175.816 81.3361C177.025 82.4399 178.28 83.4892 179.533 84.5421C179.949 84.8919 180.369 85.2401 180.763 85.6143C180.967 85.8079 181.215 86.0207 181.328 86.285C181.364 86.3691 180.747 87.0132 180.677 87.0989C180.609 87.1816 179.975 87.821 180.009 87.8998C179.759 87.3183 179.027 86.8465 178.564 86.4535C177.537 85.5803 176.495 84.7251 175.482 83.8341C174.093 82.6124 172.708 81.353 171.482 79.9652C170.466 78.8149 169.588 77.514 169.126 76.0389C168.171 72.9884 169.37 69.6786 171.15 67.1758C171.672 66.4416 172.252 65.7467 172.822 65.0493C173.128 64.6751 173.436 64.3034 173.743 63.9314C173.752 63.9209 173.942 63.684 173.817 63.8415C173.666 64.0328 173.945 63.6719 173.99 63.6122C174.167 63.3779 174.34 63.1402 174.506 62.8975C175.438 61.5348 176.076 59.9817 176.548 58.4044C176.756 57.7103 177.072 56.7639 176.841 56.0318C176.797 55.8949 176.703 55.6808 176.533 55.6635C176.62 55.6724 177.111 54.939 177.184 54.8495C177.27 54.7457 177.72 54.0353 177.853 54.0487Z" fill="#FFEA00" stroke="#263238" stroke-width="1.09195" stroke-miterlimit="10" stroke-linecap="round" stroke-linejoin="round"/>
<path d="M179.054 54.785C179.054 54.785 185.714 53.4405 186.497 53.6612C187.28 53.8827 187.634 54.654 187.09 54.8883C186.546 55.1227 179.054 54.785 179.054 54.785Z" fill="#263238" stroke="#263238" stroke-width="1.09195" stroke-miterlimit="10" stroke-linecap="round" stroke-linejoin="round"/>
<path d="M176.815 54.5251C176.815 54.5251 175.706 54.5945 173.659 54.0806C171.611 53.5667 169.947 53.2955 169.249 53.9186C168.551 54.5416 167.043 56.9747 167.515 57.2224C167.987 57.4701 168.452 57.0546 170.114 56.5747C171.776 56.095 176.163 55.1066 176.163 55.1066L176.815 54.5251Z" fill="#FFEA00" stroke="#263238" stroke-width="1.09195" stroke-miterlimit="10" stroke-linecap="round" stroke-linejoin="round"/>
<path d="M167.515 57.2222C167.515 57.2222 167.296 56.4146 168.596 56.0906C169.895 55.7669 176.163 55.1069 176.163 55.1069L167.515 57.2222Z" fill="#263238" stroke="#263238" stroke-width="1.09195" stroke-miterlimit="10" stroke-linecap="round" stroke-linejoin="round"/>
<path d="M178.428 55.5551C178.086 53.5203 177.864 51.4515 177.786 49.3901C177.722 47.7378 177.623 46.0296 177.844 44.384C178.029 43.0099 178.636 41.9455 179.974 41.3852C181.749 40.6417 183.773 40.7688 185.587 40.1237C186.853 39.673 187.925 38.8009 189.028 38.0597C190.3 37.2052 191.669 36.452 193.212 36.2584C195.08 36.0237 196.904 36.6454 198.522 37.5371C202.195 39.5621 205.359 43.2662 209.869 43.1805C209.884 43.1803 209.924 45.2653 209.908 45.2654C202.923 45.3976 198.26 35.547 190.93 39.0497C189.687 39.6435 188.602 40.4928 187.455 41.2442C186.133 42.1112 184.755 42.5251 183.195 42.7767C181.618 43.0312 179.719 43.1395 178.622 44.4691C177.903 45.3411 177.827 46.5813 177.786 47.6644C177.78 47.8497 177.777 48.0349 177.774 48.2208C177.769 48.5498 177.834 48.9766 177.757 47.4715C177.763 47.5935 177.767 47.7154 177.773 47.8369C177.792 48.2277 177.818 48.6182 177.849 49.0083C177.907 49.751 177.984 50.4926 178.074 51.2321C178.165 51.9795 178.264 52.727 178.389 53.4695C178.504 54.1497 178.314 54.8794 178.428 55.5551Z" fill="#FFEA00" stroke="#263238" stroke-width="1.09195" stroke-miterlimit="10" stroke-linecap="round" stroke-linejoin="round"/>
<path d="M179.284 53.8262C179.284 53.8262 178.887 54.8761 178.524 55.0321C178.162 55.1881 175.864 55.7085 176.163 55.1068C176.463 54.5054 178.108 53.5384 179.284 53.8262Z" fill="#FFEA00" stroke="#263238" stroke-width="1.09195" stroke-miterlimit="10" stroke-linecap="round" stroke-linejoin="round"/>
<path d="M106.165 86.327L135.376 61.489L127.066 86.6297L96.169 110.833L106.165 86.327Z" fill="#FFEA00" stroke="#263238" stroke-width="1.09195" stroke-miterlimit="10" stroke-linecap="round" stroke-linejoin="round"/>
<path d="M103.122 93.4269L132.389 70.6426L129.762 78.393L100.102 101.764L103.122 93.4269Z" fill="#8C8C8C" stroke="#263238" stroke-width="1.09195" stroke-miterlimit="10" stroke-linecap="round" stroke-linejoin="round"/>
<path d="M121.67 72.9597L114.361 96.5732L107.179 102.3L115.058 79.0298L121.67 72.9597Z" fill="#8C8C8C" stroke="#263238" stroke-width="1.09195" stroke-miterlimit="10" stroke-linecap="round" stroke-linejoin="round"/>
<path d="M127.066 86.6296L147.931 105.105L153.968 78.9248L135.376 61.489L127.066 86.6296Z" fill="#FFEA00" stroke="#263238" stroke-width="1.09195" stroke-miterlimit="10" stroke-linecap="round" stroke-linejoin="round"/>
<path d="M132.389 70.6425L151.871 88.1309L150.058 95.9627L129.762 78.3929L132.389 70.6425Z" fill="#8C8C8C" stroke="#263238" stroke-width="1.09195" stroke-miterlimit="10" stroke-linecap="round" stroke-linejoin="round"/>
<path d="M147.931 105.105L115.816 128.259L96.169 110.833L127.066 86.6295L147.931 105.105Z" fill="#FFEA00" stroke="#263238" stroke-width="1.09195" stroke-miterlimit="10" stroke-linecap="round" stroke-linejoin="round"/>
<path d="M116.104 81.8983C116.104 81.8983 116.588 78.8182 115.271 73.4287C113.953 68.0395 112.727 65.8678 115.747 63.6296C116.807 62.8438 121.211 64.4162 124.66 66.7634C128.108 69.1106 127.1 71.7254 124.836 75.1352C122.572 78.5449 117.719 83.378 117.719 83.378L116.104 81.8983Z" fill="#8C8C8C" stroke="#263238" stroke-width="1.09195" stroke-miterlimit="10" stroke-linecap="round" stroke-linejoin="round"/>
<path d="M113.781 82.6755C113.781 82.6755 106.727 83.2068 101.824 84.6577C96.9216 86.1084 96.125 86.6986 96.125 86.6986C96.125 86.6986 96.0864 92.088 98.1053 95.0044C98.4661 95.5252 98.9252 95.9648 99.4369 96.3365C102.065 98.2438 105.732 97.7827 107.955 95.4156L116.424 84.0906L113.781 82.6755Z" fill="#8C8C8C" stroke="#263238" stroke-width="1.09195" stroke-miterlimit="10" stroke-linecap="round" stroke-linejoin="round"/>
<path d="M96.1249 86.6985C96.1249 86.6985 96.9211 86.1086 101.824 84.6577C106.727 83.2068 113.781 82.6755 113.781 82.6755C113.781 82.6755 101.893 86.7608 99.4171 86.9092C96.9402 87.0579 96.1249 86.6985 96.1249 86.6985Z" fill="#263238" stroke="#263238" stroke-width="1.09195" stroke-miterlimit="10" stroke-linecap="round" stroke-linejoin="round"/>
<path d="M117.548 85.1975C117.548 85.1975 116.589 82.4796 115.472 84.2327C114.36 85.9794 105.591 89.7675 104.339 91.5163C101.697 95.2056 100.313 101.562 100.102 101.763C99.8906 101.965 101.43 101.341 107.603 98.2285C113.776 95.1156 115.045 91.9714 115.627 89.9656C116.21 87.9598 117.548 85.1975 117.548 85.1975Z" fill="#8C8C8C" stroke="#263238" stroke-width="1.09195" stroke-miterlimit="10" stroke-linecap="round" stroke-linejoin="round"/>
<path d="M116.424 84.0908C116.424 84.0908 115.557 85.9256 113.861 87.9471" stroke="#263238" stroke-width="1.09195" stroke-miterlimit="10" stroke-linecap="round" stroke-linejoin="round"/>
<path d="M113.781 82.6754C113.781 82.6754 116.16 81.3399 117.619 82.1563C119.078 82.973 118.169 84.6904 117.548 85.1975C116.928 85.7051 113.781 82.6754 113.781 82.6754Z" fill="#8C8C8C" stroke="#263238" stroke-width="1.09195" stroke-miterlimit="10" stroke-linecap="round" stroke-linejoin="round"/>
<path d="M130.145 73.6516C130.145 73.6516 132.793 71.4873 134.637 71.9426C136.481 72.398 138.994 76.0012 138.994 76.0012C138.994 76.0012 134.158 74.8171 132.137 74.8524C130.117 74.8876 128.827 75.3935 128.827 75.3935L130.145 73.6516Z" fill="#545454" stroke="#263238" stroke-width="1.09195" stroke-miterlimit="10" stroke-linecap="round" stroke-linejoin="round"/>
<path d="M117.619 82.1565C117.619 82.1565 120.572 81.2195 123.302 79.016C126.033 76.8124 130.146 73.6516 130.146 73.6516C130.146 73.6516 127.706 77.5519 126.083 79.946C124.461 82.34 123.501 82.8949 121.465 83.5481C119.43 84.2013 117.548 85.1977 117.548 85.1977C117.548 85.1977 116.335 84.0394 117.619 82.1565Z" fill="#8C8C8C" stroke="#263238" stroke-width="1.09195" stroke-miterlimit="10" stroke-linecap="round" stroke-linejoin="round"/>
<path d="M114.361 96.573L134.448 114.757L126.851 120.28L107.179 102.3L114.361 96.573Z" fill="#8C8C8C" stroke="#263238" stroke-width="1.09195" stroke-miterlimit="10" stroke-linecap="round" stroke-linejoin="round"/>
<path d="M174.21 112.821L161.644 150.372L189.283 137.059L205.579 93.8188L174.21 112.821Z" fill="#FFEA00" stroke="#263238" stroke-width="1.09195" stroke-miterlimit="10" stroke-linecap="round" stroke-linejoin="round"/>
<path d="M189.283 137.059L197.674 142.682L212.363 98.9276L205.579 93.8189L189.283 137.059Z" fill="#FFEA00" stroke="#263238" stroke-width="1.09195" stroke-miterlimit="10" stroke-linecap="round" stroke-linejoin="round"/>
<path d="M197.674 142.682L168.829 155.624L161.644 150.372L189.283 137.059L197.674 142.682Z" fill="#FFEA00" stroke="#263238" stroke-width="1.09195" stroke-miterlimit="10" stroke-linecap="round" stroke-linejoin="round"/>
<path d="M168.02 131.084L197.356 115.468L199.065 111.072L169.327 127.448L168.02 131.084Z" fill="white" stroke="#263238" stroke-width="1.09195" stroke-miterlimit="10" stroke-linecap="round" stroke-linejoin="round"/>
<path d="M197.356 115.468L205.011 120.957L206.431 116.637L199.065 111.072L197.356 115.468Z" fill="white" stroke="#263238" stroke-width="1.09195" stroke-miterlimit="10" stroke-linecap="round" stroke-linejoin="round"/>
<path d="M184.653 106.55L173.061 144.733L176.931 142.948L188.575 104.167L184.653 106.55Z" fill="white" stroke="#263238" stroke-width="1.09195" stroke-miterlimit="10" stroke-linecap="round" stroke-linejoin="round"/>
<path d="M173.061 144.733L180.274 150.527L184.175 148.727L176.931 142.947L173.061 144.733Z" fill="white" stroke="#263238" stroke-width="1.09195" stroke-miterlimit="10" stroke-linecap="round" stroke-linejoin="round"/>
<path d="M234.637 127.097C234.314 127.065 233.944 127.153 233.535 127.333C233.694 127.557 233.859 127.838 234.017 128.205C234.254 128.098 234.444 128.055 234.579 128.068C235.764 128.17 237.236 133.841 237.833 143.078C237.877 143.687 237.908 144.305 237.941 144.942L239.017 145.242C238.99 144.719 238.955 144.094 238.908 143.385C238.787 141.655 238.617 139.466 238.35 137.272C237.281 128.454 235.809 127.202 234.637 127.097Z" fill="#FFEA00" stroke="#263238" stroke-width="1.09195" stroke-miterlimit="10" stroke-linecap="round" stroke-linejoin="round"/>
<path d="M221.892 140.158L222.945 140.403C223.352 139.831 223.507 139.618 223.893 139.085C228.174 133.251 231.291 130.064 233.088 128.769C232.928 128.358 232.763 128.051 232.595 127.862C229.641 129.842 225.445 135.203 222.825 138.774C222.369 139.396 222.236 139.671 221.892 140.158Z" fill="#FFEA00" stroke="#263238" stroke-width="1.09195" stroke-miterlimit="10" stroke-linecap="round" stroke-linejoin="round"/>
<path d="M246.858 147.542L246.435 147.414L214.669 137.798L213.942 140.5L239.972 147.922L246.858 147.542Z" fill="#8C8C8C" stroke="#263238" stroke-width="1.09195" stroke-miterlimit="10" stroke-linecap="round" stroke-linejoin="round"/>
<path d="M218.048 141.33L214.669 137.798L213.942 140.5L218.048 141.33Z" fill="#595959" stroke="#263238" stroke-width="1.09195" stroke-miterlimit="10" stroke-linecap="round" stroke-linejoin="round"/>
<path d="M243.135 148.433L235.475 202.203L189.406 188.607L212.619 139.836L243.135 148.433Z" fill="#263238" stroke="#263238" stroke-width="1.09195" stroke-miterlimit="10" stroke-linecap="round" stroke-linejoin="round"/>
<path d="M218.86 141.589L219.943 141.891C220.369 141.242 220.78 140.627 221.18 140.029C227.365 130.919 231.172 127.524 232.195 127.6C232.329 127.612 232.466 127.694 232.595 127.861C232.764 128.05 232.929 128.356 233.089 128.767C233.99 131.027 234.821 136.45 235.101 144.105C235.132 144.773 235.148 145.456 235.165 146.158L236.241 146.464C236.226 145.888 236.206 145.198 236.175 144.417C236.096 142.511 235.979 140.096 235.763 137.678C235.304 132.505 234.678 129.705 234.018 128.205C233.86 127.838 233.695 127.556 233.536 127.332C233.108 126.734 232.675 126.558 232.277 126.528C229.618 126.333 223.566 134.633 220.113 139.718C219.639 140.413 219.218 141.043 218.86 141.589Z" fill="#FFEA00" stroke="#263238" stroke-width="1.09195" stroke-miterlimit="10" stroke-linecap="round" stroke-linejoin="round"/>
<path d="M235.475 202.203L242.775 200.054L246.858 147.542L238.046 147.041L243.135 148.433L235.475 202.203Z" fill="#595959" stroke="#263238" stroke-width="1.09195" stroke-miterlimit="10" stroke-linecap="round" stroke-linejoin="round"/>
<path d="M242.775 200.054L237.087 193.091" stroke="#263238" stroke-width="1.09195" stroke-miterlimit="10" stroke-linecap="round" stroke-linejoin="round"/>
<path d="M155.799 156.088C155.799 156.088 147.421 135.09 145.301 132.38L151.628 156.537L155.799 156.088Z" fill="#263238" stroke="#263238" stroke-width="1.09195" stroke-miterlimit="10" stroke-linecap="round" stroke-linejoin="round"/>
<path d="M145.301 132.38C145.301 132.38 142.531 128.291 139.919 129.185C137.306 130.079 136.277 133.261 136.586 134.632C136.895 136.004 137.603 137.862 137.603 137.862C137.603 137.862 138.209 132.351 140.74 132.001C143.272 131.651 145.854 134.985 145.854 134.985L145.301 132.38Z" fill="#263238" stroke="#263238" stroke-width="1.09195" stroke-miterlimit="10" stroke-linecap="round" stroke-linejoin="round"/>
<path d="M136.586 134.632L145.2 157.205L140.696 157.305C140.696 157.305 136.118 140.078 136.586 134.632Z" fill="#263238" stroke="#263238" stroke-width="1.09195" stroke-miterlimit="10" stroke-linecap="round" stroke-linejoin="round"/>
<path d="M161.169 153.963L136.487 156.282L139.812 165.916L150.617 166.223L161.169 153.963Z" fill="white" stroke="#263238" stroke-width="1.09195" stroke-miterlimit="10" stroke-linecap="round" stroke-linejoin="round"/>
<path d="M136.487 156.282L123.087 164.216L138.901 162.837L136.487 156.282Z" fill="white" stroke="#263238" stroke-width="1.09195" stroke-miterlimit="10" stroke-linecap="round" stroke-linejoin="round"/>
<path d="M142.047 153.141L144.567 143.674C144.567 143.674 150.608 155.115 150.796 155.513C150.984 155.912 142.987 155.135 142.987 155.135L142.047 153.141Z" fill="#FFEA00"/>
<path d="M159.458 155.978L155.831 142.425L146.153 154.617L144.179 163.178L156.155 162.405L159.458 155.978Z" fill="#FFEA00"/>
<path d="M150.242 156.748L141.185 147.865L126.66 147.907L137.364 166.541L152.471 159.756L150.242 156.748Z" fill="#FFEA00"/>
<path d="M139.812 165.916L139.235 165.098L130.431 152.608L120.476 159.734L126.31 165.915" fill="#FFEA00"/>
<path d="M161.169 153.963L190.262 208.67L181.706 211.703L175.346 218.695L148.921 161.909L161.169 153.963Z" fill="white" stroke="#263238" stroke-width="1.09195" stroke-miterlimit="10" stroke-linecap="round" stroke-linejoin="round"/>
<path d="M160.684 161.189C159.95 161.534 160.156 163.515 161.144 165.612C162.132 167.709 163.528 169.129 164.262 168.783C164.996 168.437 164.791 166.457 163.802 164.359C162.814 162.262 161.418 160.843 160.684 161.189ZM163.084 179.329C164.073 181.426 164.279 183.407 163.545 183.753C162.81 184.099 161.414 182.679 160.426 180.582C159.438 178.485 159.232 176.504 159.966 176.158C160.7 175.812 162.096 177.232 163.084 179.329ZM175.163 188.469C176.151 190.566 176.357 192.547 175.623 192.893C174.889 193.239 173.493 191.819 172.505 189.722C171.517 187.625 171.31 185.645 172.045 185.299C172.779 184.953 174.175 186.373 175.163 188.469ZM174.446 203.44C175.434 205.536 175.64 207.517 174.906 207.863C174.172 208.209 172.776 206.789 171.788 204.692C170.799 202.595 170.593 200.615 171.328 200.269C172.062 199.923 173.458 201.342 174.446 203.44Z" fill="#FFEA00"/>
<path d="M163.677 175.763L155.107 158.68" stroke="#263238" stroke-width="1.09195" stroke-miterlimit="10" stroke-linecap="round" stroke-linejoin="round"/>
<path d="M181.706 211.703L165.004 178.409" stroke="#263238" stroke-width="1.09195" stroke-miterlimit="10" stroke-linecap="round" stroke-linejoin="round"/>
<path d="M175.346 218.695L135.663 216.423L123.087 164.216L148.921 161.909L175.346 218.695Z" fill="white" stroke="#263238" stroke-width="1.09195" stroke-miterlimit="10" stroke-linecap="round" stroke-linejoin="round"/>
<path d="M149.668 178.675C150.656 180.772 152.052 182.192 152.786 181.846C153.52 181.5 153.314 179.52 152.326 177.422C151.338 175.326 149.942 173.906 149.208 174.252C148.474 174.597 148.68 176.578 149.668 178.675Z" fill="#FFEA00"/>
<path d="M159.43 198.899C160.418 200.996 161.814 202.416 162.549 202.07C163.282 201.724 163.077 199.743 162.088 197.646C161.1 195.549 159.704 194.129 158.97 194.475C158.236 194.822 158.442 196.802 159.43 198.899Z" fill="#FFEA00"/>
<path d="M133.763 180.692C133.029 181.038 131.633 179.618 130.645 177.521C129.657 175.424 129.451 173.444 130.185 173.098C130.919 172.752 132.315 174.172 133.303 176.269C134.291 178.366 134.497 180.346 133.763 180.692Z" fill="#FFEA00"/>
<path d="M142.129 201.935C141.395 202.281 139.999 200.861 139.011 198.764C138.023 196.667 137.817 194.687 138.551 194.341C139.285 193.995 140.681 195.414 141.669 197.511C142.657 199.608 142.863 201.589 142.129 201.935Z" fill="#FFEA00"/>
<path d="M140.942 174.134C140.208 174.48 138.812 173.061 137.824 170.964C136.836 168.867 136.63 166.886 137.364 166.54C138.098 166.194 139.494 167.614 140.482 169.711C141.47 171.808 141.677 173.789 140.942 174.134Z" fill="#FFEA00"/>
<path d="M146 191.076C146.988 193.172 148.384 194.592 149.118 194.246C149.852 193.901 149.646 191.92 148.658 189.823C147.67 187.726 146.274 186.306 145.539 186.652C144.805 186.998 145.012 188.979 146 191.076Z" fill="#FFEA00"/>
<path d="M139.344 214.86C138.609 215.206 137.213 213.786 136.225 211.689C135.237 209.592 135.031 207.612 135.765 207.266C136.499 206.92 137.895 208.34 138.883 210.437C139.872 212.534 140.078 214.514 139.344 214.86Z" fill="#FFEA00"/>
<path d="M170.099 217.08C169.365 217.426 167.969 216.007 166.98 213.91C165.992 211.812 165.786 209.832 166.52 209.486C167.254 209.14 168.65 210.56 169.639 212.657C170.627 214.754 170.833 216.734 170.099 217.08Z" fill="#FFEA00"/>
<path d="M133.323 192.709C132.588 193.055 131.192 191.635 130.204 189.538C129.216 187.441 129.01 185.461 129.744 185.115C130.478 184.769 131.874 186.189 132.862 188.286C133.851 190.383 134.057 192.363 133.323 192.709Z" fill="#FFEA00"/>
<path d="M153.964 211.915C154.952 214.012 156.348 215.432 157.082 215.086C157.816 214.74 157.61 212.759 156.622 210.662C155.634 208.566 154.238 207.146 153.503 207.492C152.769 207.838 152.975 209.818 153.964 211.915Z" fill="#FFEA00"/>
<path d="M144.856 166.133C144.856 166.133 136.478 145.134 134.359 142.424L140.685 166.581L144.856 166.133Z" fill="#263238" stroke="#263238" stroke-width="1.09195" stroke-miterlimit="10" stroke-linecap="round" stroke-linejoin="round"/>
<path d="M134.359 142.424C134.359 142.424 131.589 138.336 128.976 139.23C126.364 140.124 125.335 143.306 125.643 144.677C125.953 146.048 126.66 147.907 126.66 147.907C126.66 147.907 127.265 142.396 129.797 142.046C132.329 141.695 134.912 145.029 134.912 145.029L134.359 142.424Z" fill="#263238" stroke="#263238" stroke-width="1.09195" stroke-miterlimit="10" stroke-linecap="round" stroke-linejoin="round"/>
<path d="M125.643 144.677L134.258 167.25L129.754 167.35C129.754 167.35 125.176 150.123 125.643 144.677Z" fill="#263238" stroke="#263238" stroke-width="1.09195" stroke-miterlimit="10" stroke-linecap="round" stroke-linejoin="round"/>
<path d="M77.5735 173.668L111.122 156.797L120.426 145.169L91.9257 158.771L77.5735 173.668Z" fill="#FFEA00" stroke="#263238" stroke-width="1.09195" stroke-miterlimit="10" stroke-linecap="round" stroke-linejoin="round"/>
<path d="M43.4943 123.113L91.9256 158.771L77.5735 173.667L40.2674 126.57L43.8415 126.776L43.4943 123.113Z" fill="#FFEA00" stroke="#263238" stroke-width="1.09195" stroke-miterlimit="10" stroke-linecap="round" stroke-linejoin="round"/>
<path d="M43.8415 126.776L84.6522 166.739" stroke="#263238" stroke-width="1.09195" stroke-miterlimit="10" stroke-linecap="round" stroke-linejoin="round"/>
<path d="M43.4944 123.113L75.2057 116.945L120.426 145.169L91.9257 158.771L43.4944 123.113Z" fill="#FFEA00" stroke="#263238" stroke-width="1.09195" stroke-miterlimit="10" stroke-linecap="round" stroke-linejoin="round"/>
<path d="M57.8711 122.271C57.8711 122.271 46.3036 114.912 48.8142 111.064C51.3248 107.216 66.0074 116.097 68.1257 119.581" stroke="#263238" stroke-width="2.1839" stroke-miterlimit="10" stroke-linecap="round" stroke-linejoin="round"/>
<path d="M51.4269 121.835C51.4269 121.835 44.3695 117.261 42.2369 119.757C40.1043 122.254 43.9002 125.109 43.9002 125.109" stroke="#263238" stroke-width="2.1839" stroke-miterlimit="10" stroke-linecap="round" stroke-linejoin="round"/>
</g>
<defs>
<filter id="filter0_d_250_3989" x="-20.1246" y="-1.26406" width="381.244" height="381.244" filterUnits="userSpaceOnUse" color-interpolation-filters="sRGB">
<feFlood flood-opacity="0" result="BackgroundImageFix"/>
<feColorMatrix in="SourceAlpha" type="matrix" values="0 0 0 0 0 0 0 0 0 0 0 0 0 0 0 0 0 0 127 0" result="hardAlpha"/>
<feOffset dx="10" dy="11"/>
<feGaussianBlur stdDeviation="6.3"/>
<feComposite in2="hardAlpha" operator="out"/>
<feColorMatrix type="matrix" values="0 0 0 0 0 0 0 0 0 0 0 0 0 0 0 0 0 0 0.25 0"/>
<feBlend mode="normal" in2="BackgroundImageFix" result="effect1_dropShadow_250_3989"/>
<feBlend mode="normal" in="SourceGraphic" in2="effect1_dropShadow_250_3989" result="shape"/>
</filter>
</defs>
</svg>
